<mxfile host="drawio-plugin" modified="2022-11-30T03:24:43.990Z" agent="5.0 (Windows NT 6.2; Win64; x64) AppleWebKit/537.36 (KHTML, like Gecko) Chrome/89.0.4389.114 Safari/537.36" etag="6mW1-aL_o6Pz0HZxk_kS" version="20.5.3" type="embed" pages="2"><diagram id="FD9Nrwie9oe61NoiePsX" name="功能结构图"><mxGraphModel dx="670" dy="566" grid="1" gridSize="10" guides="1" tooltips="1" connect="1" arrows="1" fold="1" page="1" pageScale="1" pageWidth="1200" pageHeight="2400" math="0" shadow="0"><root><mxCell id="0"/><mxCell id="1" parent="0"/><mxCell id="ykPazOE37Gy-CAND88Rm-1" style="edgeStyle=orthogonalEdgeStyle;rounded=0;orthogonalLoop=1;jettySize=auto;html=1;exitX=0.5;exitY=1;exitDx=0;exitDy=0;entryX=0.5;entryY=0;entryDx=0;entryDy=0;endArrow=none;endFill=0;" parent="1" source="ykPazOE37Gy-CAND88Rm-3" target="ykPazOE37Gy-CAND88Rm-8" edge="1"><mxGeometry relative="1" as="geometry"><mxPoint x="550" y="200" as="targetPoint"/></mxGeometry></mxCell><mxCell id="ykPazOE37Gy-CAND88Rm-2" style="edgeStyle=orthogonalEdgeStyle;rounded=0;orthogonalLoop=1;jettySize=auto;html=1;exitX=0.5;exitY=1;exitDx=0;exitDy=0;entryX=0.5;entryY=0;entryDx=0;entryDy=0;endArrow=none;endFill=0;" parent="1" source="ykPazOE37Gy-CAND88Rm-3" target="ykPazOE37Gy-CAND88Rm-40" edge="1"><mxGeometry relative="1" as="geometry"/></mxCell><mxCell id="ykPazOE37Gy-CAND88Rm-3" value="蒸汽盒游戏论坛" style="rounded=0;whiteSpace=wrap;html=1;" parent="1" vertex="1"><mxGeometry x="790" y="90" width="90" height="50" as="geometry"/></mxCell><mxCell id="ykPazOE37Gy-CAND88Rm-4" style="edgeStyle=orthogonalEdgeStyle;rounded=0;orthogonalLoop=1;jettySize=auto;html=1;exitX=0.5;exitY=1;exitDx=0;exitDy=0;entryX=0.5;entryY=0;entryDx=0;entryDy=0;endArrow=none;endFill=0;" parent="1" source="ykPazOE37Gy-CAND88Rm-8" target="ykPazOE37Gy-CAND88Rm-11" edge="1"><mxGeometry relative="1" as="geometry"/></mxCell><mxCell id="ykPazOE37Gy-CAND88Rm-5" style="edgeStyle=orthogonalEdgeStyle;rounded=0;orthogonalLoop=1;jettySize=auto;html=1;exitX=0.5;exitY=1;exitDx=0;exitDy=0;entryX=0.5;entryY=0;entryDx=0;entryDy=0;endArrow=none;endFill=0;" parent="1" source="ykPazOE37Gy-CAND88Rm-8" target="ykPazOE37Gy-CAND88Rm-17" edge="1"><mxGeometry relative="1" as="geometry"/></mxCell><mxCell id="ykPazOE37Gy-CAND88Rm-6" style="edgeStyle=orthogonalEdgeStyle;rounded=0;orthogonalLoop=1;jettySize=auto;html=1;exitX=0.5;exitY=1;exitDx=0;exitDy=0;entryX=0.5;entryY=0;entryDx=0;entryDy=0;endArrow=none;endFill=0;" parent="1" source="ykPazOE37Gy-CAND88Rm-8" target="ykPazOE37Gy-CAND88Rm-22" edge="1"><mxGeometry relative="1" as="geometry"/></mxCell><mxCell id="ykPazOE37Gy-CAND88Rm-7" style="edgeStyle=orthogonalEdgeStyle;rounded=0;orthogonalLoop=1;jettySize=auto;html=1;exitX=0.5;exitY=1;exitDx=0;exitDy=0;entryX=0.5;entryY=0;entryDx=0;entryDy=0;endArrow=none;endFill=0;" parent="1" source="ykPazOE37Gy-CAND88Rm-8" target="ykPazOE37Gy-CAND88Rm-28" edge="1"><mxGeometry relative="1" as="geometry"/></mxCell><mxCell id="ykPazOE37Gy-CAND88Rm-8" value="&lt;div style=&quot;&quot;&gt;&lt;span style=&quot;background-color: initial;&quot;&gt;用户&lt;/span&gt;&lt;/div&gt;" style="rounded=0;whiteSpace=wrap;html=1;align=center;" parent="1" vertex="1"><mxGeometry x="410" y="200" width="50" height="90" as="geometry"/></mxCell><mxCell id="ykPazOE37Gy-CAND88Rm-9" style="edgeStyle=orthogonalEdgeStyle;rounded=0;orthogonalLoop=1;jettySize=auto;html=1;exitX=0.5;exitY=1;exitDx=0;exitDy=0;entryX=0.5;entryY=0;entryDx=0;entryDy=0;endArrow=none;endFill=0;" parent="1" source="ykPazOE37Gy-CAND88Rm-11" target="ykPazOE37Gy-CAND88Rm-12" edge="1"><mxGeometry relative="1" as="geometry"/></mxCell><mxCell id="ykPazOE37Gy-CAND88Rm-10" style="edgeStyle=orthogonalEdgeStyle;rounded=0;orthogonalLoop=1;jettySize=auto;html=1;exitX=0.5;exitY=1;exitDx=0;exitDy=0;endArrow=none;endFill=0;" parent="1" source="ykPazOE37Gy-CAND88Rm-11" target="ykPazOE37Gy-CAND88Rm-13" edge="1"><mxGeometry relative="1" as="geometry"/></mxCell><mxCell id="ykPazOE37Gy-CAND88Rm-11" value="&lt;div style=&quot;&quot;&gt;权限控制&lt;/div&gt;" style="rounded=0;whiteSpace=wrap;html=1;align=center;" parent="1" vertex="1"><mxGeometry x="150" y="370" width="60" height="90" as="geometry"/></mxCell><mxCell id="ykPazOE37Gy-CAND88Rm-12" value="&lt;div style=&quot;&quot;&gt;登录&lt;/div&gt;" style="rounded=0;whiteSpace=wrap;html=1;align=center;" parent="1" vertex="1"><mxGeometry x="110" y="520" width="50" height="90" as="geometry"/></mxCell><mxCell id="ykPazOE37Gy-CAND88Rm-13" value="&lt;div style=&quot;&quot;&gt;注册&lt;/div&gt;" style="rounded=0;whiteSpace=wrap;html=1;align=center;" parent="1" vertex="1"><mxGeometry x="200" y="520" width="50" height="90" as="geometry"/></mxCell><mxCell id="ykPazOE37Gy-CAND88Rm-14" style="edgeStyle=orthogonalEdgeStyle;rounded=0;orthogonalLoop=1;jettySize=auto;html=1;exitX=0.5;exitY=1;exitDx=0;exitDy=0;endArrow=none;endFill=0;" parent="1" source="ykPazOE37Gy-CAND88Rm-17" target="ykPazOE37Gy-CAND88Rm-18" edge="1"><mxGeometry relative="1" as="geometry"/></mxCell><mxCell id="ykPazOE37Gy-CAND88Rm-15" style="edgeStyle=orthogonalEdgeStyle;rounded=0;orthogonalLoop=1;jettySize=auto;html=1;exitX=0.5;exitY=1;exitDx=0;exitDy=0;endArrow=none;endFill=0;" parent="1" source="ykPazOE37Gy-CAND88Rm-17" target="ykPazOE37Gy-CAND88Rm-19" edge="1"><mxGeometry relative="1" as="geometry"/></mxCell><mxCell id="ykPazOE37Gy-CAND88Rm-16" style="edgeStyle=orthogonalEdgeStyle;rounded=0;orthogonalLoop=1;jettySize=auto;html=1;exitX=0.5;exitY=1;exitDx=0;exitDy=0;entryX=0.5;entryY=0;entryDx=0;entryDy=0;endArrow=none;endFill=0;" parent="1" source="ykPazOE37Gy-CAND88Rm-17" target="ykPazOE37Gy-CAND88Rm-23" edge="1"><mxGeometry relative="1" as="geometry"/></mxCell><mxCell id="ykPazOE37Gy-CAND88Rm-17" value="&lt;div style=&quot;&quot;&gt;稿件管理&lt;/div&gt;" style="rounded=0;whiteSpace=wrap;html=1;align=center;" parent="1" vertex="1"><mxGeometry x="330" y="370" width="50" height="90" as="geometry"/></mxCell><mxCell id="ykPazOE37Gy-CAND88Rm-18" value="&lt;div style=&quot;&quot;&gt;&lt;span style=&quot;font-size:10.5pt;mso-bidi-font-size:11.0pt;&lt;br/&gt;font-family:宋体;mso-ascii-font-family:Calibri;mso-hansi-font-family:Calibri;&lt;br/&gt;mso-bidi-font-family:&amp;quot;Times New Roman&amp;quot;;mso-font-kerning:1.0pt;mso-ansi-language:&lt;br/&gt;EN-US;mso-fareast-language:ZH-CN;mso-bidi-language:AR-SA&quot;&gt;用户发布帖子&lt;/span&gt;&lt;br&gt;&lt;/div&gt;" style="rounded=0;whiteSpace=wrap;html=1;align=center;" parent="1" vertex="1"><mxGeometry x="270" y="520" width="50" height="90" as="geometry"/></mxCell><mxCell id="ykPazOE37Gy-CAND88Rm-19" value="&lt;div style=&quot;&quot;&gt;修改帖子&lt;/div&gt;" style="rounded=0;whiteSpace=wrap;html=1;align=center;" parent="1" vertex="1"><mxGeometry x="330" y="520" width="50" height="90" as="geometry"/></mxCell><mxCell id="ykPazOE37Gy-CAND88Rm-20" style="edgeStyle=orthogonalEdgeStyle;rounded=0;orthogonalLoop=1;jettySize=auto;html=1;exitX=0.5;exitY=1;exitDx=0;exitDy=0;entryX=0.5;entryY=0;entryDx=0;entryDy=0;endArrow=none;endFill=0;" parent="1" source="ykPazOE37Gy-CAND88Rm-22" target="ykPazOE37Gy-CAND88Rm-24" edge="1"><mxGeometry relative="1" as="geometry"/></mxCell><mxCell id="ykPazOE37Gy-CAND88Rm-21" style="edgeStyle=orthogonalEdgeStyle;rounded=0;orthogonalLoop=1;jettySize=auto;html=1;exitX=0.5;exitY=1;exitDx=0;exitDy=0;entryX=0.5;entryY=0;entryDx=0;entryDy=0;endArrow=none;endFill=0;" parent="1" source="ykPazOE37Gy-CAND88Rm-22" target="ykPazOE37Gy-CAND88Rm-25" edge="1"><mxGeometry relative="1" as="geometry"/></mxCell><mxCell id="ykPazOE37Gy-CAND88Rm-22" value="&lt;div style=&quot;&quot;&gt;评论&lt;/div&gt;" style="rounded=0;whiteSpace=wrap;html=1;align=center;" parent="1" vertex="1"><mxGeometry x="510" y="370" width="50" height="90" as="geometry"/></mxCell><mxCell id="ykPazOE37Gy-CAND88Rm-23" value="&lt;div style=&quot;&quot;&gt;删除帖子&lt;/div&gt;" style="rounded=0;whiteSpace=wrap;html=1;align=center;" parent="1" vertex="1"><mxGeometry x="390" y="520" width="50" height="90" as="geometry"/></mxCell><mxCell id="ykPazOE37Gy-CAND88Rm-24" value="&lt;div style=&quot;&quot;&gt;评论/回复&lt;/div&gt;" style="rounded=0;whiteSpace=wrap;html=1;align=center;" parent="1" vertex="1"><mxGeometry x="470" y="520" width="60" height="90" as="geometry"/></mxCell><mxCell id="ykPazOE37Gy-CAND88Rm-25" value="&lt;div style=&quot;&quot;&gt;点赞/点踩&lt;br&gt;&lt;/div&gt;" style="rounded=0;whiteSpace=wrap;html=1;align=center;" parent="1" vertex="1"><mxGeometry x="540" y="520" width="60" height="90" as="geometry"/></mxCell><mxCell id="ykPazOE37Gy-CAND88Rm-26" style="edgeStyle=orthogonalEdgeStyle;rounded=0;orthogonalLoop=1;jettySize=auto;html=1;exitX=0.5;exitY=1;exitDx=0;exitDy=0;endArrow=none;endFill=0;" parent="1" source="ykPazOE37Gy-CAND88Rm-28" target="ykPazOE37Gy-CAND88Rm-29" edge="1"><mxGeometry relative="1" as="geometry"/></mxCell><mxCell id="ykPazOE37Gy-CAND88Rm-27" style="edgeStyle=orthogonalEdgeStyle;rounded=0;orthogonalLoop=1;jettySize=auto;html=1;exitX=0.5;exitY=1;exitDx=0;exitDy=0;endArrow=none;endFill=0;" parent="1" source="ykPazOE37Gy-CAND88Rm-28" target="ykPazOE37Gy-CAND88Rm-30" edge="1"><mxGeometry relative="1" as="geometry"/></mxCell><mxCell id="ykPazOE37Gy-CAND88Rm-28" value="&lt;div style=&quot;&quot;&gt;个人中心&lt;/div&gt;" style="rounded=0;whiteSpace=wrap;html=1;align=center;" parent="1" vertex="1"><mxGeometry x="680" y="370" width="50" height="90" as="geometry"/></mxCell><mxCell id="ykPazOE37Gy-CAND88Rm-29" value="&lt;div style=&quot;&quot;&gt;修改个人信息&lt;/div&gt;" style="rounded=0;whiteSpace=wrap;html=1;align=center;" parent="1" vertex="1"><mxGeometry x="630" y="520" width="50" height="90" as="geometry"/></mxCell><mxCell id="ykPazOE37Gy-CAND88Rm-30" value="&lt;div style=&quot;&quot;&gt;修改密码&lt;/div&gt;" style="rounded=0;whiteSpace=wrap;html=1;align=center;" parent="1" vertex="1"><mxGeometry x="730" y="520" width="50" height="90" as="geometry"/></mxCell><mxCell id="ykPazOE37Gy-CAND88Rm-31" style="edgeStyle=orthogonalEdgeStyle;rounded=0;orthogonalLoop=1;jettySize=auto;html=1;exitX=0.5;exitY=1;exitDx=0;exitDy=0;entryX=0.5;entryY=0;entryDx=0;entryDy=0;endArrow=none;endFill=0;" parent="1" source="ykPazOE37Gy-CAND88Rm-40" target="ykPazOE37Gy-CAND88Rm-43" edge="1"><mxGeometry relative="1" as="geometry"/></mxCell><mxCell id="ykPazOE37Gy-CAND88Rm-32" style="edgeStyle=orthogonalEdgeStyle;rounded=0;orthogonalLoop=1;jettySize=auto;html=1;exitX=0.5;exitY=1;exitDx=0;exitDy=0;endArrow=none;endFill=0;" parent="1" source="ykPazOE37Gy-CAND88Rm-40" target="ykPazOE37Gy-CAND88Rm-45" edge="1"><mxGeometry relative="1" as="geometry"/></mxCell><mxCell id="ykPazOE37Gy-CAND88Rm-35" style="edgeStyle=orthogonalEdgeStyle;rounded=0;orthogonalLoop=1;jettySize=auto;html=1;exitX=0.5;exitY=1;exitDx=0;exitDy=0;endArrow=none;endFill=0;" parent="1" source="ykPazOE37Gy-CAND88Rm-40" target="ykPazOE37Gy-CAND88Rm-63" edge="1"><mxGeometry relative="1" as="geometry"/></mxCell><mxCell id="ykPazOE37Gy-CAND88Rm-39" style="edgeStyle=orthogonalEdgeStyle;rounded=0;orthogonalLoop=1;jettySize=auto;html=1;exitX=0.5;exitY=1;exitDx=0;exitDy=0;endArrow=none;endFill=0;entryX=0.5;entryY=0;entryDx=0;entryDy=0;" parent="1" source="ykPazOE37Gy-CAND88Rm-40" target="ykPazOE37Gy-CAND88Rm-83" edge="1"><mxGeometry relative="1" as="geometry"><mxPoint x="2005" y="370" as="targetPoint"/></mxGeometry></mxCell><mxCell id="ykPazOE37Gy-CAND88Rm-93" style="edgeStyle=orthogonalEdgeStyle;rounded=0;orthogonalLoop=1;jettySize=auto;html=1;exitX=0.5;exitY=1;exitDx=0;exitDy=0;entryX=0.5;entryY=0;entryDx=0;entryDy=0;endArrow=none;endFill=0;" parent="1" source="ykPazOE37Gy-CAND88Rm-40" target="ykPazOE37Gy-CAND88Rm-92" edge="1"><mxGeometry relative="1" as="geometry"/></mxCell><mxCell id="ykPazOE37Gy-CAND88Rm-40" value="&lt;div style=&quot;&quot;&gt;&lt;span style=&quot;background-color: initial;&quot;&gt;管理员&lt;/span&gt;&lt;/div&gt;" style="rounded=0;whiteSpace=wrap;html=1;align=center;" parent="1" vertex="1"><mxGeometry x="1130" y="200" width="50" height="90" as="geometry"/></mxCell><mxCell id="ykPazOE37Gy-CAND88Rm-41" style="edgeStyle=orthogonalEdgeStyle;rounded=0;orthogonalLoop=1;jettySize=auto;html=1;exitX=0.5;exitY=1;exitDx=0;exitDy=0;endArrow=none;endFill=0;entryX=0.5;entryY=0;entryDx=0;entryDy=0;" parent="1" source="ykPazOE37Gy-CAND88Rm-43" target="ykPazOE37Gy-CAND88Rm-49" edge="1"><mxGeometry relative="1" as="geometry"><mxPoint x="965" y="520" as="targetPoint"/></mxGeometry></mxCell><mxCell id="ykPazOE37Gy-CAND88Rm-42" style="edgeStyle=orthogonalEdgeStyle;rounded=0;orthogonalLoop=1;jettySize=auto;html=1;exitX=0.5;exitY=1;exitDx=0;exitDy=0;entryX=0.5;entryY=0;entryDx=0;entryDy=0;endArrow=none;endFill=0;" parent="1" source="ykPazOE37Gy-CAND88Rm-43" target="ykPazOE37Gy-CAND88Rm-44" edge="1"><mxGeometry relative="1" as="geometry"/></mxCell><mxCell id="ykPazOE37Gy-CAND88Rm-87" style="edgeStyle=orthogonalEdgeStyle;rounded=0;orthogonalLoop=1;jettySize=auto;html=1;exitX=0.5;exitY=1;exitDx=0;exitDy=0;entryX=0.5;entryY=0;entryDx=0;entryDy=0;endArrow=none;endFill=0;" parent="1" source="ykPazOE37Gy-CAND88Rm-43" target="ykPazOE37Gy-CAND88Rm-86" edge="1"><mxGeometry relative="1" as="geometry"/></mxCell><mxCell id="ykPazOE37Gy-CAND88Rm-43" value="&lt;div style=&quot;&quot;&gt;游戏信息管理&lt;/div&gt;" style="rounded=0;whiteSpace=wrap;html=1;align=center;" parent="1" vertex="1"><mxGeometry x="980" y="370" width="50" height="90" as="geometry"/></mxCell><mxCell id="ykPazOE37Gy-CAND88Rm-44" value="&lt;div style=&quot;&quot;&gt;修改游戏信息&lt;/div&gt;" style="rounded=0;whiteSpace=wrap;html=1;align=center;" parent="1" vertex="1"><mxGeometry x="980" y="520" width="50" height="90" as="geometry"/></mxCell><mxCell id="ykPazOE37Gy-CAND88Rm-80" style="rounded=0;orthogonalLoop=1;jettySize=auto;html=1;exitX=0.5;exitY=1;exitDx=0;exitDy=0;entryX=0.5;entryY=0;entryDx=0;entryDy=0;endArrow=none;endFill=0;" parent="1" source="ykPazOE37Gy-CAND88Rm-45" target="ykPazOE37Gy-CAND88Rm-79" edge="1"><mxGeometry relative="1" as="geometry"/></mxCell><mxCell id="ykPazOE37Gy-CAND88Rm-45" value="&lt;div style=&quot;&quot;&gt;权限管理&lt;/div&gt;" style="rounded=0;whiteSpace=wrap;html=1;align=center;" parent="1" vertex="1"><mxGeometry x="820" y="370" width="50" height="90" as="geometry"/></mxCell><mxCell id="ykPazOE37Gy-CAND88Rm-49" value="&lt;div style=&quot;&quot;&gt;发布游戏信息&lt;/div&gt;" style="rounded=0;whiteSpace=wrap;html=1;align=center;" parent="1" vertex="1"><mxGeometry x="910" y="520" width="50" height="90" as="geometry"/></mxCell><mxCell id="ykPazOE37Gy-CAND88Rm-59" value="&lt;div style=&quot;&quot;&gt;添加社区&lt;/div&gt;" style="rounded=0;whiteSpace=wrap;html=1;align=center;" parent="1" vertex="1"><mxGeometry x="1170" y="520" width="50" height="90" as="geometry"/></mxCell><mxCell id="ykPazOE37Gy-CAND88Rm-60" value="&lt;div style=&quot;&quot;&gt;修改社区&lt;/div&gt;" style="rounded=0;whiteSpace=wrap;html=1;align=center;" parent="1" vertex="1"><mxGeometry x="1250" y="520" width="50" height="90" as="geometry"/></mxCell><mxCell id="ykPazOE37Gy-CAND88Rm-61" style="edgeStyle=orthogonalEdgeStyle;rounded=0;orthogonalLoop=1;jettySize=auto;html=1;exitX=0.5;exitY=1;exitDx=0;exitDy=0;endArrow=none;endFill=0;" parent="1" source="ykPazOE37Gy-CAND88Rm-63" target="ykPazOE37Gy-CAND88Rm-59" edge="1"><mxGeometry relative="1" as="geometry"/></mxCell><mxCell id="ykPazOE37Gy-CAND88Rm-62" style="edgeStyle=orthogonalEdgeStyle;rounded=0;orthogonalLoop=1;jettySize=auto;html=1;exitX=0.5;exitY=1;exitDx=0;exitDy=0;endArrow=none;endFill=0;" parent="1" source="ykPazOE37Gy-CAND88Rm-63" target="ykPazOE37Gy-CAND88Rm-60" edge="1"><mxGeometry relative="1" as="geometry"/></mxCell><mxCell id="ykPazOE37Gy-CAND88Rm-63" value="&lt;div style=&quot;&quot;&gt;社区管理&lt;/div&gt;" style="rounded=0;whiteSpace=wrap;html=1;align=center;" parent="1" vertex="1"><mxGeometry x="1210" y="370" width="50" height="90" as="geometry"/></mxCell><mxCell id="ykPazOE37Gy-CAND88Rm-79" value="&lt;div style=&quot;&quot;&gt;登录&lt;/div&gt;" style="rounded=0;whiteSpace=wrap;html=1;align=center;" parent="1" vertex="1"><mxGeometry x="820" y="520" width="50" height="90" as="geometry"/></mxCell><mxCell id="ykPazOE37Gy-CAND88Rm-81" style="edgeStyle=orthogonalEdgeStyle;rounded=0;orthogonalLoop=1;jettySize=auto;html=1;exitX=0.5;exitY=1;exitDx=0;exitDy=0;endArrow=none;endFill=0;" parent="1" source="ykPazOE37Gy-CAND88Rm-83" target="ykPazOE37Gy-CAND88Rm-84" edge="1"><mxGeometry relative="1" as="geometry"/></mxCell><mxCell id="ykPazOE37Gy-CAND88Rm-82" style="edgeStyle=orthogonalEdgeStyle;rounded=0;orthogonalLoop=1;jettySize=auto;html=1;exitX=0.5;exitY=1;exitDx=0;exitDy=0;endArrow=none;endFill=0;" parent="1" source="ykPazOE37Gy-CAND88Rm-83" target="ykPazOE37Gy-CAND88Rm-85" edge="1"><mxGeometry relative="1" as="geometry"/></mxCell><mxCell id="ykPazOE37Gy-CAND88Rm-83" value="&lt;div style=&quot;&quot;&gt;个人中心&lt;/div&gt;" style="rounded=0;whiteSpace=wrap;html=1;align=center;" parent="1" vertex="1"><mxGeometry x="1600" y="370" width="50" height="90" as="geometry"/></mxCell><mxCell id="ykPazOE37Gy-CAND88Rm-84" value="&lt;div style=&quot;&quot;&gt;修改个人信息&lt;/div&gt;" style="rounded=0;whiteSpace=wrap;html=1;align=center;" parent="1" vertex="1"><mxGeometry x="1550" y="520" width="50" height="90" as="geometry"/></mxCell><mxCell id="ykPazOE37Gy-CAND88Rm-85" value="&lt;div style=&quot;&quot;&gt;修改密码&lt;/div&gt;" style="rounded=0;whiteSpace=wrap;html=1;align=center;" parent="1" vertex="1"><mxGeometry x="1650" y="520" width="50" height="90" as="geometry"/></mxCell><mxCell id="ykPazOE37Gy-CAND88Rm-86" value="&lt;div style=&quot;&quot;&gt;删除游戏信息&lt;/div&gt;" style="rounded=0;whiteSpace=wrap;html=1;align=center;" parent="1" vertex="1"><mxGeometry x="1050" y="520" width="50" height="90" as="geometry"/></mxCell><mxCell id="ykPazOE37Gy-CAND88Rm-88" value="&lt;div style=&quot;&quot;&gt;通过稿件&lt;/div&gt;" style="rounded=0;whiteSpace=wrap;html=1;align=center;" parent="1" vertex="1"><mxGeometry x="1360" y="520" width="50" height="90" as="geometry"/></mxCell><mxCell id="ykPazOE37Gy-CAND88Rm-89" value="&lt;div style=&quot;&quot;&gt;退回稿件&lt;/div&gt;" style="rounded=0;whiteSpace=wrap;html=1;align=center;" parent="1" vertex="1"><mxGeometry x="1440" y="520" width="50" height="90" as="geometry"/></mxCell><mxCell id="ykPazOE37Gy-CAND88Rm-90" style="edgeStyle=orthogonalEdgeStyle;rounded=0;orthogonalLoop=1;jettySize=auto;html=1;exitX=0.5;exitY=1;exitDx=0;exitDy=0;endArrow=none;endFill=0;" parent="1" source="ykPazOE37Gy-CAND88Rm-92" target="ykPazOE37Gy-CAND88Rm-88" edge="1"><mxGeometry relative="1" as="geometry"/></mxCell><mxCell id="ykPazOE37Gy-CAND88Rm-91" style="edgeStyle=orthogonalEdgeStyle;rounded=0;orthogonalLoop=1;jettySize=auto;html=1;exitX=0.5;exitY=1;exitDx=0;exitDy=0;endArrow=none;endFill=0;" parent="1" source="ykPazOE37Gy-CAND88Rm-92" target="ykPazOE37Gy-CAND88Rm-89" edge="1"><mxGeometry relative="1" as="geometry"/></mxCell><mxCell id="ykPazOE37Gy-CAND88Rm-92" value="&lt;div style=&quot;&quot;&gt;稿件审核管理&lt;/div&gt;" style="rounded=0;whiteSpace=wrap;html=1;align=center;" parent="1" vertex="1"><mxGeometry x="1400" y="370" width="50" height="90" as="geometry"/></mxCell><mxCell id="xFhBly9-fBpQQuPFOj44-1" style="edgeStyle=orthogonalEdgeStyle;rounded=0;orthogonalLoop=1;jettySize=auto;html=1;exitX=0.5;exitY=1;exitDx=0;exitDy=0;entryX=0.5;entryY=0;entryDx=0;entryDy=0;endArrow=none;endFill=0;" parent="1" source="xFhBly9-fBpQQuPFOj44-3" target="xFhBly9-fBpQQuPFOj44-8" edge="1"><mxGeometry relative="1" as="geometry"><mxPoint x="580" y="850" as="targetPoint"/></mxGeometry></mxCell><mxCell id="xFhBly9-fBpQQuPFOj44-2" style="edgeStyle=orthogonalEdgeStyle;rounded=0;orthogonalLoop=1;jettySize=auto;html=1;exitX=0.5;exitY=1;exitDx=0;exitDy=0;entryX=0.5;entryY=0;entryDx=0;entryDy=0;endArrow=none;endFill=0;" parent="1" source="xFhBly9-fBpQQuPFOj44-3" target="xFhBly9-fBpQQuPFOj44-36" edge="1"><mxGeometry relative="1" as="geometry"/></mxCell><mxCell id="xFhBly9-fBpQQuPFOj44-3" value="蒸汽盒游戏论坛" style="rounded=0;whiteSpace=wrap;html=1;" parent="1" vertex="1"><mxGeometry x="820" y="740" width="90" height="50" as="geometry"/></mxCell><mxCell id="xFhBly9-fBpQQuPFOj44-4" style="edgeStyle=orthogonalEdgeStyle;rounded=0;orthogonalLoop=1;jettySize=auto;html=1;exitX=0.5;exitY=1;exitDx=0;exitDy=0;entryX=0.5;entryY=0;entryDx=0;entryDy=0;endArrow=none;endFill=0;" parent="1" source="xFhBly9-fBpQQuPFOj44-8" target="xFhBly9-fBpQQuPFOj44-11" edge="1"><mxGeometry relative="1" as="geometry"/></mxCell><mxCell id="xFhBly9-fBpQQuPFOj44-5" style="edgeStyle=orthogonalEdgeStyle;rounded=0;orthogonalLoop=1;jettySize=auto;html=1;exitX=0.5;exitY=1;exitDx=0;exitDy=0;entryX=0.5;entryY=0;entryDx=0;entryDy=0;endArrow=none;endFill=0;" parent="1" source="xFhBly9-fBpQQuPFOj44-8" target="xFhBly9-fBpQQuPFOj44-17" edge="1"><mxGeometry relative="1" as="geometry"/></mxCell><mxCell id="xFhBly9-fBpQQuPFOj44-6" style="edgeStyle=orthogonalEdgeStyle;rounded=0;orthogonalLoop=1;jettySize=auto;html=1;exitX=0.5;exitY=1;exitDx=0;exitDy=0;entryX=0.5;entryY=0;entryDx=0;entryDy=0;endArrow=none;endFill=0;" parent="1" source="xFhBly9-fBpQQuPFOj44-8" target="xFhBly9-fBpQQuPFOj44-22" edge="1"><mxGeometry relative="1" as="geometry"/></mxCell><mxCell id="xFhBly9-fBpQQuPFOj44-7" style="edgeStyle=orthogonalEdgeStyle;rounded=0;orthogonalLoop=1;jettySize=auto;html=1;exitX=0.5;exitY=1;exitDx=0;exitDy=0;entryX=0.5;entryY=0;entryDx=0;entryDy=0;endArrow=none;endFill=0;" parent="1" source="xFhBly9-fBpQQuPFOj44-8" target="xFhBly9-fBpQQuPFOj44-28" edge="1"><mxGeometry relative="1" as="geometry"/></mxCell><mxCell id="xFhBly9-fBpQQuPFOj44-8" value="&lt;div style=&quot;&quot;&gt;&lt;span style=&quot;background-color: initial;&quot;&gt;用户&lt;/span&gt;&lt;/div&gt;" style="rounded=0;whiteSpace=wrap;html=1;align=center;" parent="1" vertex="1"><mxGeometry x="440" y="850" width="50" height="90" as="geometry"/></mxCell><mxCell id="xFhBly9-fBpQQuPFOj44-9" style="edgeStyle=orthogonalEdgeStyle;rounded=0;orthogonalLoop=1;jettySize=auto;html=1;exitX=0.5;exitY=1;exitDx=0;exitDy=0;entryX=0.5;entryY=0;entryDx=0;entryDy=0;endArrow=none;endFill=0;" parent="1" source="xFhBly9-fBpQQuPFOj44-11" target="xFhBly9-fBpQQuPFOj44-12" edge="1"><mxGeometry relative="1" as="geometry"/></mxCell><mxCell id="xFhBly9-fBpQQuPFOj44-10" style="edgeStyle=orthogonalEdgeStyle;rounded=0;orthogonalLoop=1;jettySize=auto;html=1;exitX=0.5;exitY=1;exitDx=0;exitDy=0;endArrow=none;endFill=0;" parent="1" source="xFhBly9-fBpQQuPFOj44-11" target="xFhBly9-fBpQQuPFOj44-13" edge="1"><mxGeometry relative="1" as="geometry"/></mxCell><mxCell id="xFhBly9-fBpQQuPFOj44-11" value="&lt;div style=&quot;&quot;&gt;权限控制&lt;/div&gt;" style="rounded=0;whiteSpace=wrap;html=1;align=center;" parent="1" vertex="1"><mxGeometry x="180" y="1020" width="60" height="90" as="geometry"/></mxCell><mxCell id="xFhBly9-fBpQQuPFOj44-12" value="&lt;div style=&quot;&quot;&gt;登录&lt;/div&gt;" style="rounded=0;whiteSpace=wrap;html=1;align=center;" parent="1" vertex="1"><mxGeometry x="140" y="1170" width="50" height="90" as="geometry"/></mxCell><mxCell id="xFhBly9-fBpQQuPFOj44-13" value="&lt;div style=&quot;&quot;&gt;注册&lt;/div&gt;" style="rounded=0;whiteSpace=wrap;html=1;align=center;" parent="1" vertex="1"><mxGeometry x="230" y="1170" width="50" height="90" as="geometry"/></mxCell><mxCell id="xFhBly9-fBpQQuPFOj44-14" style="edgeStyle=orthogonalEdgeStyle;rounded=0;orthogonalLoop=1;jettySize=auto;html=1;exitX=0.5;exitY=1;exitDx=0;exitDy=0;endArrow=none;endFill=0;" parent="1" source="xFhBly9-fBpQQuPFOj44-17" target="xFhBly9-fBpQQuPFOj44-18" edge="1"><mxGeometry relative="1" as="geometry"/></mxCell><mxCell id="xFhBly9-fBpQQuPFOj44-15" style="edgeStyle=orthogonalEdgeStyle;rounded=0;orthogonalLoop=1;jettySize=auto;html=1;exitX=0.5;exitY=1;exitDx=0;exitDy=0;endArrow=none;endFill=0;" parent="1" source="xFhBly9-fBpQQuPFOj44-17" target="xFhBly9-fBpQQuPFOj44-19" edge="1"><mxGeometry relative="1" as="geometry"/></mxCell><mxCell id="xFhBly9-fBpQQuPFOj44-16" style="edgeStyle=orthogonalEdgeStyle;rounded=0;orthogonalLoop=1;jettySize=auto;html=1;exitX=0.5;exitY=1;exitDx=0;exitDy=0;entryX=0.5;entryY=0;entryDx=0;entryDy=0;endArrow=none;endFill=0;" parent="1" source="xFhBly9-fBpQQuPFOj44-17" target="xFhBly9-fBpQQuPFOj44-23" edge="1"><mxGeometry relative="1" as="geometry"/></mxCell><mxCell id="xFhBly9-fBpQQuPFOj44-17" value="&lt;div style=&quot;&quot;&gt;稿件管理&lt;/div&gt;" style="rounded=0;whiteSpace=wrap;html=1;align=center;" parent="1" vertex="1"><mxGeometry x="360" y="1020" width="50" height="90" as="geometry"/></mxCell><mxCell id="xFhBly9-fBpQQuPFOj44-18" value="&lt;div style=&quot;&quot;&gt;&lt;span style=&quot;font-size:10.5pt;mso-bidi-font-size:11.0pt;&lt;br/&gt;font-family:宋体;mso-ascii-font-family:Calibri;mso-hansi-font-family:Calibri;&lt;br/&gt;mso-bidi-font-family:&amp;quot;Times New Roman&amp;quot;;mso-font-kerning:1.0pt;mso-ansi-language:&lt;br/&gt;EN-US;mso-fareast-language:ZH-CN;mso-bidi-language:AR-SA&quot;&gt;用户发布帖子&lt;/span&gt;&lt;br&gt;&lt;/div&gt;" style="rounded=0;whiteSpace=wrap;html=1;align=center;" parent="1" vertex="1"><mxGeometry x="300" y="1170" width="50" height="90" as="geometry"/></mxCell><mxCell id="xFhBly9-fBpQQuPFOj44-19" value="&lt;div style=&quot;&quot;&gt;修改帖子&lt;/div&gt;" style="rounded=0;whiteSpace=wrap;html=1;align=center;" parent="1" vertex="1"><mxGeometry x="360" y="1170" width="50" height="90" as="geometry"/></mxCell><mxCell id="xFhBly9-fBpQQuPFOj44-20" style="edgeStyle=orthogonalEdgeStyle;rounded=0;orthogonalLoop=1;jettySize=auto;html=1;exitX=0.5;exitY=1;exitDx=0;exitDy=0;entryX=0.5;entryY=0;entryDx=0;entryDy=0;endArrow=none;endFill=0;" parent="1" source="xFhBly9-fBpQQuPFOj44-22" target="xFhBly9-fBpQQuPFOj44-24" edge="1"><mxGeometry relative="1" as="geometry"/></mxCell><mxCell id="xFhBly9-fBpQQuPFOj44-21" style="edgeStyle=orthogonalEdgeStyle;rounded=0;orthogonalLoop=1;jettySize=auto;html=1;exitX=0.5;exitY=1;exitDx=0;exitDy=0;entryX=0.5;entryY=0;entryDx=0;entryDy=0;endArrow=none;endFill=0;" parent="1" source="xFhBly9-fBpQQuPFOj44-22" target="xFhBly9-fBpQQuPFOj44-25" edge="1"><mxGeometry relative="1" as="geometry"/></mxCell><mxCell id="xFhBly9-fBpQQuPFOj44-22" value="&lt;div style=&quot;&quot;&gt;评论&lt;/div&gt;" style="rounded=0;whiteSpace=wrap;html=1;align=center;" parent="1" vertex="1"><mxGeometry x="540" y="1020" width="50" height="90" as="geometry"/></mxCell><mxCell id="xFhBly9-fBpQQuPFOj44-23" value="&lt;div style=&quot;&quot;&gt;删除帖子&lt;/div&gt;" style="rounded=0;whiteSpace=wrap;html=1;align=center;" parent="1" vertex="1"><mxGeometry x="420" y="1170" width="50" height="90" as="geometry"/></mxCell><mxCell id="xFhBly9-fBpQQuPFOj44-24" value="&lt;div style=&quot;&quot;&gt;评论/回复&lt;/div&gt;" style="rounded=0;whiteSpace=wrap;html=1;align=center;" parent="1" vertex="1"><mxGeometry x="500" y="1170" width="60" height="90" as="geometry"/></mxCell><mxCell id="xFhBly9-fBpQQuPFOj44-25" value="&lt;div style=&quot;&quot;&gt;点赞/点踩&lt;br&gt;&lt;/div&gt;" style="rounded=0;whiteSpace=wrap;html=1;align=center;" parent="1" vertex="1"><mxGeometry x="570" y="1170" width="60" height="90" as="geometry"/></mxCell><mxCell id="xFhBly9-fBpQQuPFOj44-26" style="edgeStyle=orthogonalEdgeStyle;rounded=0;orthogonalLoop=1;jettySize=auto;html=1;exitX=0.5;exitY=1;exitDx=0;exitDy=0;endArrow=none;endFill=0;" parent="1" source="xFhBly9-fBpQQuPFOj44-28" target="xFhBly9-fBpQQuPFOj44-29" edge="1"><mxGeometry relative="1" as="geometry"/></mxCell><mxCell id="xFhBly9-fBpQQuPFOj44-27" style="edgeStyle=orthogonalEdgeStyle;rounded=0;orthogonalLoop=1;jettySize=auto;html=1;exitX=0.5;exitY=1;exitDx=0;exitDy=0;endArrow=none;endFill=0;" parent="1" source="xFhBly9-fBpQQuPFOj44-28" target="xFhBly9-fBpQQuPFOj44-30" edge="1"><mxGeometry relative="1" as="geometry"/></mxCell><mxCell id="xFhBly9-fBpQQuPFOj44-28" value="&lt;div style=&quot;&quot;&gt;个人中心&lt;/div&gt;" style="rounded=0;whiteSpace=wrap;html=1;align=center;" parent="1" vertex="1"><mxGeometry x="710" y="1020" width="50" height="90" as="geometry"/></mxCell><mxCell id="xFhBly9-fBpQQuPFOj44-29" value="&lt;div style=&quot;&quot;&gt;修改个人信息&lt;/div&gt;" style="rounded=0;whiteSpace=wrap;html=1;align=center;" parent="1" vertex="1"><mxGeometry x="660" y="1170" width="50" height="90" as="geometry"/></mxCell><mxCell id="xFhBly9-fBpQQuPFOj44-30" value="&lt;div style=&quot;&quot;&gt;修改密码&lt;/div&gt;" style="rounded=0;whiteSpace=wrap;html=1;align=center;" parent="1" vertex="1"><mxGeometry x="760" y="1170" width="50" height="90" as="geometry"/></mxCell><mxCell id="xFhBly9-fBpQQuPFOj44-32" style="edgeStyle=orthogonalEdgeStyle;rounded=0;orthogonalLoop=1;jettySize=auto;html=1;exitX=0.5;exitY=1;exitDx=0;exitDy=0;endArrow=none;endFill=0;" parent="1" source="xFhBly9-fBpQQuPFOj44-36" target="xFhBly9-fBpQQuPFOj44-43" edge="1"><mxGeometry relative="1" as="geometry"/></mxCell><mxCell id="xFhBly9-fBpQQuPFOj44-33" style="edgeStyle=orthogonalEdgeStyle;rounded=0;orthogonalLoop=1;jettySize=auto;html=1;exitX=0.5;exitY=1;exitDx=0;exitDy=0;endArrow=none;endFill=0;" parent="1" source="xFhBly9-fBpQQuPFOj44-36" target="xFhBly9-fBpQQuPFOj44-49" edge="1"><mxGeometry relative="1" as="geometry"/></mxCell><mxCell id="xFhBly9-fBpQQuPFOj44-34" style="edgeStyle=orthogonalEdgeStyle;rounded=0;orthogonalLoop=1;jettySize=auto;html=1;exitX=0.5;exitY=1;exitDx=0;exitDy=0;endArrow=none;endFill=0;entryX=0.5;entryY=0;entryDx=0;entryDy=0;" parent="1" source="xFhBly9-fBpQQuPFOj44-36" target="xFhBly9-fBpQQuPFOj44-53" edge="1"><mxGeometry relative="1" as="geometry"><mxPoint x="2035" y="1020" as="targetPoint"/></mxGeometry></mxCell><mxCell id="xFhBly9-fBpQQuPFOj44-35" style="edgeStyle=orthogonalEdgeStyle;rounded=0;orthogonalLoop=1;jettySize=auto;html=1;exitX=0.5;exitY=1;exitDx=0;exitDy=0;entryX=0.5;entryY=0;entryDx=0;entryDy=0;endArrow=none;endFill=0;" parent="1" source="xFhBly9-fBpQQuPFOj44-36" target="xFhBly9-fBpQQuPFOj44-61" edge="1"><mxGeometry relative="1" as="geometry"/></mxCell><mxCell id="xFhBly9-fBpQQuPFOj44-36" value="&lt;div style=&quot;&quot;&gt;&lt;span style=&quot;background-color: initial;&quot;&gt;管理员&lt;/span&gt;&lt;/div&gt;" style="rounded=0;whiteSpace=wrap;html=1;align=center;" parent="1" vertex="1"><mxGeometry x="1160" y="850" width="50" height="90" as="geometry"/></mxCell><mxCell id="xFhBly9-fBpQQuPFOj44-42" style="rounded=0;orthogonalLoop=1;jettySize=auto;html=1;exitX=0.5;exitY=1;exitDx=0;exitDy=0;entryX=0.5;entryY=0;entryDx=0;entryDy=0;endArrow=none;endFill=0;" parent="1" source="xFhBly9-fBpQQuPFOj44-43" target="xFhBly9-fBpQQuPFOj44-50" edge="1"><mxGeometry relative="1" as="geometry"/></mxCell><mxCell id="xFhBly9-fBpQQuPFOj44-43" value="&lt;div style=&quot;&quot;&gt;权限控制&lt;/div&gt;" style="rounded=0;whiteSpace=wrap;html=1;align=center;" parent="1" vertex="1"><mxGeometry x="850" y="1020" width="50" height="90" as="geometry"/></mxCell><mxCell id="xFhBly9-fBpQQuPFOj44-45" value="&lt;div style=&quot;&quot;&gt;添加社区&lt;/div&gt;" style="rounded=0;whiteSpace=wrap;html=1;align=center;" parent="1" vertex="1"><mxGeometry x="960" y="1170" width="50" height="90" as="geometry"/></mxCell><mxCell id="xFhBly9-fBpQQuPFOj44-46" value="&lt;div style=&quot;&quot;&gt;修改社区&lt;/div&gt;" style="rounded=0;whiteSpace=wrap;html=1;align=center;" parent="1" vertex="1"><mxGeometry x="1040" y="1170" width="50" height="90" as="geometry"/></mxCell><mxCell id="xFhBly9-fBpQQuPFOj44-47" style="edgeStyle=orthogonalEdgeStyle;rounded=0;orthogonalLoop=1;jettySize=auto;html=1;exitX=0.5;exitY=1;exitDx=0;exitDy=0;endArrow=none;endFill=0;" parent="1" source="xFhBly9-fBpQQuPFOj44-49" target="xFhBly9-fBpQQuPFOj44-45" edge="1"><mxGeometry relative="1" as="geometry"/></mxCell><mxCell id="xFhBly9-fBpQQuPFOj44-48" style="edgeStyle=orthogonalEdgeStyle;rounded=0;orthogonalLoop=1;jettySize=auto;html=1;exitX=0.5;exitY=1;exitDx=0;exitDy=0;endArrow=none;endFill=0;" parent="1" source="xFhBly9-fBpQQuPFOj44-49" target="xFhBly9-fBpQQuPFOj44-46" edge="1"><mxGeometry relative="1" as="geometry"/></mxCell><mxCell id="xFhBly9-fBpQQuPFOj44-49" value="&lt;div style=&quot;&quot;&gt;社区管理&lt;/div&gt;" style="rounded=0;whiteSpace=wrap;html=1;align=center;" parent="1" vertex="1"><mxGeometry x="1000" y="1020" width="50" height="90" as="geometry"/></mxCell><mxCell id="xFhBly9-fBpQQuPFOj44-50" value="&lt;div style=&quot;&quot;&gt;登录&lt;/div&gt;" style="rounded=0;whiteSpace=wrap;html=1;align=center;" parent="1" vertex="1"><mxGeometry x="850" y="1170" width="50" height="90" as="geometry"/></mxCell><mxCell id="xFhBly9-fBpQQuPFOj44-51" style="edgeStyle=orthogonalEdgeStyle;rounded=0;orthogonalLoop=1;jettySize=auto;html=1;exitX=0.5;exitY=1;exitDx=0;exitDy=0;endArrow=none;endFill=0;" parent="1" source="xFhBly9-fBpQQuPFOj44-53" target="xFhBly9-fBpQQuPFOj44-54" edge="1"><mxGeometry relative="1" as="geometry"/></mxCell><mxCell id="xFhBly9-fBpQQuPFOj44-52" style="edgeStyle=orthogonalEdgeStyle;rounded=0;orthogonalLoop=1;jettySize=auto;html=1;exitX=0.5;exitY=1;exitDx=0;exitDy=0;endArrow=none;endFill=0;" parent="1" source="xFhBly9-fBpQQuPFOj44-53" target="xFhBly9-fBpQQuPFOj44-55" edge="1"><mxGeometry relative="1" as="geometry"/></mxCell><mxCell id="xFhBly9-fBpQQuPFOj44-53" value="&lt;div style=&quot;&quot;&gt;个人中心&lt;/div&gt;" style="rounded=0;whiteSpace=wrap;html=1;align=center;" parent="1" vertex="1"><mxGeometry x="1380" y="1020" width="50" height="90" as="geometry"/></mxCell><mxCell id="xFhBly9-fBpQQuPFOj44-54" value="&lt;div style=&quot;&quot;&gt;修改个人信息&lt;/div&gt;" style="rounded=0;whiteSpace=wrap;html=1;align=center;" parent="1" vertex="1"><mxGeometry x="1330" y="1170" width="50" height="90" as="geometry"/></mxCell><mxCell id="xFhBly9-fBpQQuPFOj44-55" value="&lt;div style=&quot;&quot;&gt;修改密码&lt;/div&gt;" style="rounded=0;whiteSpace=wrap;html=1;align=center;" parent="1" vertex="1"><mxGeometry x="1430" y="1170" width="50" height="90" as="geometry"/></mxCell><mxCell id="xFhBly9-fBpQQuPFOj44-57" value="&lt;div style=&quot;&quot;&gt;通过稿件&lt;/div&gt;" style="rounded=0;whiteSpace=wrap;html=1;align=center;" parent="1" vertex="1"><mxGeometry x="1140" y="1170" width="50" height="90" as="geometry"/></mxCell><mxCell id="xFhBly9-fBpQQuPFOj44-58" value="&lt;div style=&quot;&quot;&gt;退回稿件&lt;/div&gt;" style="rounded=0;whiteSpace=wrap;html=1;align=center;" parent="1" vertex="1"><mxGeometry x="1220" y="1170" width="50" height="90" as="geometry"/></mxCell><mxCell id="xFhBly9-fBpQQuPFOj44-59" style="edgeStyle=orthogonalEdgeStyle;rounded=0;orthogonalLoop=1;jettySize=auto;html=1;exitX=0.5;exitY=1;exitDx=0;exitDy=0;endArrow=none;endFill=0;" parent="1" source="xFhBly9-fBpQQuPFOj44-61" target="xFhBly9-fBpQQuPFOj44-57" edge="1"><mxGeometry relative="1" as="geometry"/></mxCell><mxCell id="xFhBly9-fBpQQuPFOj44-60" style="edgeStyle=orthogonalEdgeStyle;rounded=0;orthogonalLoop=1;jettySize=auto;html=1;exitX=0.5;exitY=1;exitDx=0;exitDy=0;endArrow=none;endFill=0;" parent="1" source="xFhBly9-fBpQQuPFOj44-61" target="xFhBly9-fBpQQuPFOj44-58" edge="1"><mxGeometry relative="1" as="geometry"/></mxCell><mxCell id="xFhBly9-fBpQQuPFOj44-61" value="&lt;div style=&quot;&quot;&gt;稿件审核管理&lt;/div&gt;" style="rounded=0;whiteSpace=wrap;html=1;align=center;" parent="1" vertex="1"><mxGeometry x="1180" y="1020" width="50" height="90" as="geometry"/></mxCell></root></mxGraphModel></diagram><diagram id="ZYO-jhv-Fgkgn7LN6OSn" name="ER图"><mxGraphModel dx="670" dy="2966" grid="1" gridSize="10" guides="1" tooltips="1" connect="1" arrows="1" fold="1" page="1" pageScale="1" pageWidth="1200" pageHeight="2400" math="0" shadow="0"><root><mxCell id="0"/><mxCell id="1" parent="0"/><mxCell id="_ZFDlXhqXRM0hez-_a2L-1" value="管理员" style="whiteSpace=wrap;html=1;align=center;" parent="1" vertex="1"><mxGeometry x="150" y="-2000" width="80" height="50" as="geometry"/></mxCell><mxCell id="_ZFDlXhqXRM0hez-_a2L-2" value="编号" style="ellipse;whiteSpace=wrap;html=1;" parent="1" vertex="1"><mxGeometry x="60" y="-2110" width="70" height="40" as="geometry"/></mxCell><mxCell id="_ZFDlXhqXRM0hez-_a2L-3" value="新闻" style="whiteSpace=wrap;html=1;align=center;" parent="1" vertex="1"><mxGeometry x="470" y="-2000" width="80" height="50" as="geometry"/></mxCell><mxCell id="_ZFDlXhqXRM0hez-_a2L-4" value="用户" style="whiteSpace=wrap;html=1;align=center;" parent="1" vertex="1"><mxGeometry x="150" y="-1695" width="80" height="50" as="geometry"/></mxCell><mxCell id="_ZFDlXhqXRM0hez-_a2L-5" value="评论" style="whiteSpace=wrap;html=1;align=center;" parent="1" vertex="1"><mxGeometry x="470" y="-1695" width="80" height="50" as="geometry"/></mxCell><mxCell id="_ZFDlXhqXRM0hez-_a2L-6" value="分类" style="whiteSpace=wrap;html=1;align=center;" parent="1" vertex="1"><mxGeometry x="820" y="-1870" width="80" height="50" as="geometry"/></mxCell><mxCell id="_ZFDlXhqXRM0hez-_a2L-7" value="标签" style="whiteSpace=wrap;html=1;align=center;" parent="1" vertex="1"><mxGeometry x="970" y="-2000" width="80" height="50" as="geometry"/></mxCell><mxCell id="_ZFDlXhqXRM0hez-_a2L-8" value="发布" style="rhombus;whiteSpace=wrap;html=1;" parent="1" vertex="1"><mxGeometry x="310" y="-2000" width="80" height="50" as="geometry"/></mxCell><mxCell id="_ZFDlXhqXRM0hez-_a2L-9" value="属于" style="rhombus;whiteSpace=wrap;html=1;" parent="1" vertex="1"><mxGeometry x="770" y="-2000" width="80" height="50" as="geometry"/></mxCell><mxCell id="_ZFDlXhqXRM0hez-_a2L-10" value="" style="endArrow=none;html=1;rounded=0;exitX=1;exitY=0.5;exitDx=0;exitDy=0;entryX=0;entryY=0.5;entryDx=0;entryDy=0;" parent="1" source="_ZFDlXhqXRM0hez-_a2L-1" target="_ZFDlXhqXRM0hez-_a2L-8" edge="1"><mxGeometry width="50" height="50" relative="1" as="geometry"><mxPoint x="260" y="-2049" as="sourcePoint"/><mxPoint x="405" y="-2049" as="targetPoint"/></mxGeometry></mxCell><mxCell id="_ZFDlXhqXRM0hez-_a2L-11" value="1" style="edgeLabel;html=1;align=center;verticalAlign=middle;resizable=0;points=[];fontStyle=1;fontSize=14;" parent="_ZFDlXhqXRM0hez-_a2L-10" vertex="1" connectable="0"><mxGeometry x="-0.3683" y="1" relative="1" as="geometry"><mxPoint x="15" y="1" as="offset"/></mxGeometry></mxCell><mxCell id="_ZFDlXhqXRM0hez-_a2L-12" value="N" style="endArrow=none;html=1;rounded=0;exitX=1;exitY=0.5;exitDx=0;exitDy=0;entryX=0;entryY=0.5;entryDx=0;entryDy=0;fontStyle=1;fontSize=14;" parent="1" source="_ZFDlXhqXRM0hez-_a2L-8" target="_ZFDlXhqXRM0hez-_a2L-3" edge="1"><mxGeometry width="50" height="50" relative="1" as="geometry"><mxPoint x="410" y="-2000" as="sourcePoint"/><mxPoint x="490.0000000000001" y="-2000" as="targetPoint"/><Array as="points"><mxPoint x="430" y="-1975"/></Array></mxGeometry></mxCell><mxCell id="_ZFDlXhqXRM0hez-_a2L-13" value="N" style="endArrow=none;html=1;rounded=0;exitX=1;exitY=0.5;exitDx=0;exitDy=0;entryX=0;entryY=0.5;entryDx=0;entryDy=0;fontStyle=1;fontSize=14;" parent="1" source="_ZFDlXhqXRM0hez-_a2L-9" target="_ZFDlXhqXRM0hez-_a2L-7" edge="1"><mxGeometry width="50" height="50" relative="1" as="geometry"><mxPoint x="700" y="-2050" as="sourcePoint"/><mxPoint x="780" y="-2050" as="targetPoint"/><Array as="points"/></mxGeometry></mxCell><mxCell id="_ZFDlXhqXRM0hez-_a2L-14" value="M" style="endArrow=none;html=1;rounded=0;exitX=1;exitY=0.5;exitDx=0;exitDy=0;entryX=0;entryY=0.5;entryDx=0;entryDy=0;fontStyle=1;fontSize=14;" parent="1" source="_ZFDlXhqXRM0hez-_a2L-3" target="_ZFDlXhqXRM0hez-_a2L-9" edge="1"><mxGeometry x="-0.0382" y="-1" width="50" height="50" relative="1" as="geometry"><mxPoint x="690" y="-2025" as="sourcePoint"/><mxPoint x="760" y="-2105" as="targetPoint"/><Array as="points"/><mxPoint as="offset"/></mxGeometry></mxCell><mxCell id="_ZFDlXhqXRM0hez-_a2L-15" value="属于" style="rhombus;whiteSpace=wrap;html=1;" parent="1" vertex="1"><mxGeometry x="650" y="-1920" width="80" height="50" as="geometry"/></mxCell><mxCell id="_ZFDlXhqXRM0hez-_a2L-16" value="1" style="endArrow=none;html=1;rounded=0;exitX=1;exitY=0.5;exitDx=0;exitDy=0;entryX=0;entryY=0.5;entryDx=0;entryDy=0;fontStyle=1;fontSize=14;" parent="1" source="_ZFDlXhqXRM0hez-_a2L-15" target="_ZFDlXhqXRM0hez-_a2L-6" edge="1"><mxGeometry width="50" height="50" relative="1" as="geometry"><mxPoint x="690" y="-1900" as="sourcePoint"/><mxPoint x="740" y="-1965" as="targetPoint"/><Array as="points"/></mxGeometry></mxCell><mxCell id="_ZFDlXhqXRM0hez-_a2L-17" value="N" style="endArrow=none;html=1;rounded=0;exitX=1;exitY=0.5;exitDx=0;exitDy=0;entryX=0;entryY=0.5;entryDx=0;entryDy=0;fontStyle=1;fontSize=14;" parent="1" source="_ZFDlXhqXRM0hez-_a2L-3" target="_ZFDlXhqXRM0hez-_a2L-15" edge="1"><mxGeometry x="-0.0382" y="-1" width="50" height="50" relative="1" as="geometry"><mxPoint x="540" y="-1825" as="sourcePoint"/><mxPoint x="750" y="-1955" as="targetPoint"/><Array as="points"/><mxPoint as="offset"/></mxGeometry></mxCell><mxCell id="_ZFDlXhqXRM0hez-_a2L-18" value="发布" style="rhombus;whiteSpace=wrap;html=1;" parent="1" vertex="1"><mxGeometry x="310" y="-1695" width="80" height="50" as="geometry"/></mxCell><mxCell id="_ZFDlXhqXRM0hez-_a2L-19" value="" style="endArrow=none;html=1;rounded=0;exitX=1;exitY=0.5;exitDx=0;exitDy=0;entryX=0;entryY=0.5;entryDx=0;entryDy=0;" parent="1" source="_ZFDlXhqXRM0hez-_a2L-4" target="_ZFDlXhqXRM0hez-_a2L-18" edge="1"><mxGeometry width="50" height="50" relative="1" as="geometry"><mxPoint x="230" y="-1670" as="sourcePoint"/><mxPoint x="405" y="-1744" as="targetPoint"/></mxGeometry></mxCell><mxCell id="_ZFDlXhqXRM0hez-_a2L-20" value="1" style="edgeLabel;html=1;align=center;verticalAlign=middle;resizable=0;points=[];fontStyle=1;fontSize=14;" parent="_ZFDlXhqXRM0hez-_a2L-19" vertex="1" connectable="0"><mxGeometry x="-0.3683" y="1" relative="1" as="geometry"><mxPoint x="15" y="1" as="offset"/></mxGeometry></mxCell><mxCell id="_ZFDlXhqXRM0hez-_a2L-21" value="N" style="endArrow=none;html=1;rounded=0;exitX=1;exitY=0.5;exitDx=0;exitDy=0;entryX=0;entryY=0.5;entryDx=0;entryDy=0;fontStyle=1;fontSize=14;" parent="1" source="_ZFDlXhqXRM0hez-_a2L-18" target="_ZFDlXhqXRM0hez-_a2L-5" edge="1"><mxGeometry width="50" height="50" relative="1" as="geometry"><mxPoint x="410" y="-1695" as="sourcePoint"/><mxPoint x="470" y="-1670" as="targetPoint"/><Array as="points"><mxPoint x="430" y="-1670"/></Array></mxGeometry></mxCell><mxCell id="_ZFDlXhqXRM0hez-_a2L-22" value="拥有" style="rhombus;whiteSpace=wrap;html=1;" parent="1" vertex="1"><mxGeometry x="470" y="-1860" width="80" height="50" as="geometry"/></mxCell><mxCell id="_ZFDlXhqXRM0hez-_a2L-23" value="1" style="endArrow=none;html=1;rounded=0;exitX=0.5;exitY=1;exitDx=0;exitDy=0;entryX=0.5;entryY=0;entryDx=0;entryDy=0;fontStyle=1;fontSize=14;" parent="1" source="_ZFDlXhqXRM0hez-_a2L-3" target="_ZFDlXhqXRM0hez-_a2L-22" edge="1"><mxGeometry width="50" height="50" relative="1" as="geometry"><mxPoint x="420" y="-1825" as="sourcePoint"/><mxPoint x="595" y="-1899" as="targetPoint"/></mxGeometry></mxCell><mxCell id="_ZFDlXhqXRM0hez-_a2L-24" value="N" style="endArrow=none;html=1;rounded=0;exitX=0.5;exitY=1;exitDx=0;exitDy=0;fontStyle=1;fontSize=14;" parent="1" source="_ZFDlXhqXRM0hez-_a2L-22" edge="1"><mxGeometry width="50" height="50" relative="1" as="geometry"><mxPoint x="600" y="-1850" as="sourcePoint"/><mxPoint x="510" y="-1700" as="targetPoint"/><Array as="points"><mxPoint x="510" y="-1770"/></Array></mxGeometry></mxCell><mxCell id="_ZFDlXhqXRM0hez-_a2L-25" value="" style="endArrow=none;html=1;rounded=0;fontSize=14;entryX=0.5;entryY=1;entryDx=0;entryDy=0;exitX=0;exitY=0.25;exitDx=0;exitDy=0;" parent="1" source="_ZFDlXhqXRM0hez-_a2L-1" target="_ZFDlXhqXRM0hez-_a2L-2" edge="1"><mxGeometry width="50" height="50" relative="1" as="geometry"><mxPoint x="260" y="-1980" as="sourcePoint"/><mxPoint x="310" y="-2030" as="targetPoint"/></mxGeometry></mxCell><mxCell id="_ZFDlXhqXRM0hez-_a2L-26" value="账号" style="ellipse;whiteSpace=wrap;html=1;" parent="1" vertex="1"><mxGeometry x="40" y="-2040" width="70" height="40" as="geometry"/></mxCell><mxCell id="_ZFDlXhqXRM0hez-_a2L-27" value="" style="endArrow=none;html=1;rounded=0;fontSize=14;entryX=1;entryY=1;entryDx=0;entryDy=0;exitX=0;exitY=0.5;exitDx=0;exitDy=0;" parent="1" source="_ZFDlXhqXRM0hez-_a2L-1" target="_ZFDlXhqXRM0hez-_a2L-26" edge="1"><mxGeometry width="50" height="50" relative="1" as="geometry"><mxPoint x="150.0000000000001" y="-1950" as="sourcePoint"/><mxPoint x="270" y="-1980" as="targetPoint"/></mxGeometry></mxCell><mxCell id="_ZFDlXhqXRM0hez-_a2L-28" value="姓名" style="ellipse;whiteSpace=wrap;html=1;" parent="1" vertex="1"><mxGeometry x="40" y="-1980" width="70" height="40" as="geometry"/></mxCell><mxCell id="_ZFDlXhqXRM0hez-_a2L-29" value="" style="endArrow=none;html=1;rounded=0;fontSize=14;entryX=1;entryY=0.5;entryDx=0;entryDy=0;exitX=0;exitY=0.5;exitDx=0;exitDy=0;" parent="1" source="_ZFDlXhqXRM0hez-_a2L-1" target="_ZFDlXhqXRM0hez-_a2L-28" edge="1"><mxGeometry width="50" height="50" relative="1" as="geometry"><mxPoint x="125.00000000000011" y="-1860" as="sourcePoint"/><mxPoint x="245" y="-1890" as="targetPoint"/></mxGeometry></mxCell><mxCell id="_ZFDlXhqXRM0hez-_a2L-30" value="密码" style="ellipse;whiteSpace=wrap;html=1;" parent="1" vertex="1"><mxGeometry x="40" y="-1910" width="70" height="40" as="geometry"/></mxCell><mxCell id="_ZFDlXhqXRM0hez-_a2L-31" value="" style="endArrow=none;html=1;rounded=0;fontSize=14;entryX=1;entryY=0.5;entryDx=0;entryDy=0;" parent="1" target="_ZFDlXhqXRM0hez-_a2L-30" edge="1"><mxGeometry width="50" height="50" relative="1" as="geometry"><mxPoint x="149.99999999999977" y="-1970" as="sourcePoint"/><mxPoint x="110" y="-1890" as="targetPoint"/></mxGeometry></mxCell><mxCell id="_ZFDlXhqXRM0hez-_a2L-32" value="编号" style="ellipse;whiteSpace=wrap;html=1;" parent="1" vertex="1"><mxGeometry x="320" y="-2100" width="70" height="40" as="geometry"/></mxCell><mxCell id="_ZFDlXhqXRM0hez-_a2L-33" value="" style="endArrow=none;html=1;rounded=0;fontSize=14;entryX=1;entryY=1;entryDx=0;entryDy=0;exitX=0;exitY=0;exitDx=0;exitDy=0;" parent="1" source="_ZFDlXhqXRM0hez-_a2L-3" target="_ZFDlXhqXRM0hez-_a2L-32" edge="1"><mxGeometry width="50" height="50" relative="1" as="geometry"><mxPoint x="510.0000000000001" y="-2030" as="sourcePoint"/><mxPoint x="630" y="-2060" as="targetPoint"/></mxGeometry></mxCell><mxCell id="_ZFDlXhqXRM0hez-_a2L-34" value="标题" style="ellipse;whiteSpace=wrap;html=1;" parent="1" vertex="1"><mxGeometry x="380" y="-2150" width="70" height="40" as="geometry"/></mxCell><mxCell id="_ZFDlXhqXRM0hez-_a2L-35" value="" style="endArrow=none;html=1;rounded=0;fontSize=14;entryX=0.5;entryY=1;entryDx=0;entryDy=0;exitX=0.25;exitY=0;exitDx=0;exitDy=0;" parent="1" source="_ZFDlXhqXRM0hez-_a2L-3" target="_ZFDlXhqXRM0hez-_a2L-34" edge="1"><mxGeometry width="50" height="50" relative="1" as="geometry"><mxPoint x="480" y="-2010" as="sourcePoint"/><mxPoint x="640" y="-2070" as="targetPoint"/></mxGeometry></mxCell><mxCell id="_ZFDlXhqXRM0hez-_a2L-36" value="图片" style="ellipse;whiteSpace=wrap;html=1;" parent="1" vertex="1"><mxGeometry x="450" y="-2160" width="70" height="40" as="geometry"/></mxCell><mxCell id="_ZFDlXhqXRM0hez-_a2L-37" value="" style="endArrow=none;html=1;rounded=0;fontSize=14;entryX=0.5;entryY=1;entryDx=0;entryDy=0;exitX=0.5;exitY=0;exitDx=0;exitDy=0;" parent="1" source="_ZFDlXhqXRM0hez-_a2L-3" target="_ZFDlXhqXRM0hez-_a2L-36" edge="1"><mxGeometry width="50" height="50" relative="1" as="geometry"><mxPoint x="580.0000000000001" y="-2060" as="sourcePoint"/><mxPoint x="700" y="-2090" as="targetPoint"/></mxGeometry></mxCell><mxCell id="_ZFDlXhqXRM0hez-_a2L-38" value="发布时间" style="ellipse;whiteSpace=wrap;html=1;" parent="1" vertex="1"><mxGeometry x="530" y="-2160" width="70" height="40" as="geometry"/></mxCell><mxCell id="_ZFDlXhqXRM0hez-_a2L-39" value="" style="endArrow=none;html=1;rounded=0;fontSize=14;entryX=0.5;entryY=1;entryDx=0;entryDy=0;exitX=0.5;exitY=0;exitDx=0;exitDy=0;" parent="1" source="_ZFDlXhqXRM0hez-_a2L-3" target="_ZFDlXhqXRM0hez-_a2L-38" edge="1"><mxGeometry width="50" height="50" relative="1" as="geometry"><mxPoint x="650.0000000000001" y="-2040" as="sourcePoint"/><mxPoint x="770" y="-2070" as="targetPoint"/></mxGeometry></mxCell><mxCell id="_ZFDlXhqXRM0hez-_a2L-40" value="内容" style="ellipse;whiteSpace=wrap;html=1;" parent="1" vertex="1"><mxGeometry x="610" y="-2150" width="70" height="40" as="geometry"/></mxCell><mxCell id="_ZFDlXhqXRM0hez-_a2L-41" value="" style="endArrow=none;html=1;rounded=0;fontSize=14;entryX=0.5;entryY=1;entryDx=0;entryDy=0;" parent="1" target="_ZFDlXhqXRM0hez-_a2L-40" edge="1"><mxGeometry width="50" height="50" relative="1" as="geometry"><mxPoint x="510" y="-2000" as="sourcePoint"/><mxPoint x="870" y="-2060" as="targetPoint"/></mxGeometry></mxCell><mxCell id="_ZFDlXhqXRM0hez-_a2L-42" value="是否置顶" style="ellipse;whiteSpace=wrap;html=1;" parent="1" vertex="1"><mxGeometry x="660" y="-2110" width="70" height="40" as="geometry"/></mxCell><mxCell id="_ZFDlXhqXRM0hez-_a2L-43" value="" style="endArrow=none;html=1;rounded=0;fontSize=14;entryX=0;entryY=1;entryDx=0;entryDy=0;exitX=0.75;exitY=0;exitDx=0;exitDy=0;" parent="1" source="_ZFDlXhqXRM0hez-_a2L-3" target="_ZFDlXhqXRM0hez-_a2L-42" edge="1"><mxGeometry width="50" height="50" relative="1" as="geometry"><mxPoint x="800" y="-1990" as="sourcePoint"/><mxPoint x="920" y="-2020" as="targetPoint"/></mxGeometry></mxCell><mxCell id="_ZFDlXhqXRM0hez-_a2L-44" value="阅读量" style="ellipse;whiteSpace=wrap;html=1;" parent="1" vertex="1"><mxGeometry x="700" y="-2070" width="70" height="40" as="geometry"/></mxCell><mxCell id="_ZFDlXhqXRM0hez-_a2L-45" value="" style="endArrow=none;html=1;rounded=0;fontSize=14;entryX=0;entryY=0.5;entryDx=0;entryDy=0;exitX=1;exitY=0;exitDx=0;exitDy=0;" parent="1" source="_ZFDlXhqXRM0hez-_a2L-3" target="_ZFDlXhqXRM0hez-_a2L-44" edge="1"><mxGeometry width="50" height="50" relative="1" as="geometry"><mxPoint x="570" y="-2010" as="sourcePoint"/><mxPoint x="940" y="-1990" as="targetPoint"/></mxGeometry></mxCell><mxCell id="_ZFDlXhqXRM0hez-_a2L-46" value="编号" style="ellipse;whiteSpace=wrap;html=1;" parent="1" vertex="1"><mxGeometry x="1090" y="-2040" width="70" height="40" as="geometry"/></mxCell><mxCell id="_ZFDlXhqXRM0hez-_a2L-47" value="" style="endArrow=none;html=1;rounded=0;fontSize=14;entryX=0;entryY=0.5;entryDx=0;entryDy=0;exitX=1;exitY=0.5;exitDx=0;exitDy=0;" parent="1" source="_ZFDlXhqXRM0hez-_a2L-7" target="_ZFDlXhqXRM0hez-_a2L-46" edge="1"><mxGeometry width="50" height="50" relative="1" as="geometry"><mxPoint x="1180" y="-1990" as="sourcePoint"/><mxPoint x="1300" y="-2020" as="targetPoint"/></mxGeometry></mxCell><mxCell id="_ZFDlXhqXRM0hez-_a2L-48" value="名称" style="ellipse;whiteSpace=wrap;html=1;" parent="1" vertex="1"><mxGeometry x="1090" y="-1950" width="70" height="40" as="geometry"/></mxCell><mxCell id="_ZFDlXhqXRM0hez-_a2L-49" value="" style="endArrow=none;html=1;rounded=0;fontSize=14;entryX=0;entryY=0.5;entryDx=0;entryDy=0;exitX=1;exitY=0.5;exitDx=0;exitDy=0;" parent="1" source="_ZFDlXhqXRM0hez-_a2L-7" target="_ZFDlXhqXRM0hez-_a2L-48" edge="1"><mxGeometry width="50" height="50" relative="1" as="geometry"><mxPoint x="1080.0000000000002" y="-2012.5" as="sourcePoint"/><mxPoint x="1380" y="-1907.5" as="targetPoint"/></mxGeometry></mxCell><mxCell id="_ZFDlXhqXRM0hez-_a2L-50" value="编号" style="ellipse;whiteSpace=wrap;html=1;" parent="1" vertex="1"><mxGeometry x="930" y="-1910" width="70" height="40" as="geometry"/></mxCell><mxCell id="_ZFDlXhqXRM0hez-_a2L-51" value="" style="endArrow=none;html=1;rounded=0;fontSize=14;entryX=0;entryY=0.5;entryDx=0;entryDy=0;exitX=1;exitY=0.5;exitDx=0;exitDy=0;" parent="1" source="_ZFDlXhqXRM0hez-_a2L-6" target="_ZFDlXhqXRM0hez-_a2L-50" edge="1"><mxGeometry width="50" height="50" relative="1" as="geometry"><mxPoint x="910.0000000000002" y="-1845" as="sourcePoint"/><mxPoint x="1160" y="-1890" as="targetPoint"/></mxGeometry></mxCell><mxCell id="_ZFDlXhqXRM0hez-_a2L-52" value="名称" style="ellipse;whiteSpace=wrap;html=1;" parent="1" vertex="1"><mxGeometry x="930" y="-1820" width="70" height="40" as="geometry"/></mxCell><mxCell id="_ZFDlXhqXRM0hez-_a2L-53" value="" style="endArrow=none;html=1;rounded=0;fontSize=14;entryX=0;entryY=0.5;entryDx=0;entryDy=0;exitX=1;exitY=0.5;exitDx=0;exitDy=0;" parent="1" source="_ZFDlXhqXRM0hez-_a2L-6" target="_ZFDlXhqXRM0hez-_a2L-52" edge="1"><mxGeometry width="50" height="50" relative="1" as="geometry"><mxPoint x="910.0000000000002" y="-1845" as="sourcePoint"/><mxPoint x="1240" y="-1777.5" as="targetPoint"/></mxGeometry></mxCell><mxCell id="_ZFDlXhqXRM0hez-_a2L-54" value="编号" style="ellipse;whiteSpace=wrap;html=1;" parent="1" vertex="1"><mxGeometry x="80" y="-1810" width="70" height="40" as="geometry"/></mxCell><mxCell id="_ZFDlXhqXRM0hez-_a2L-55" value="" style="endArrow=none;html=1;rounded=0;fontSize=14;entryX=1;entryY=1;entryDx=0;entryDy=0;exitX=0.5;exitY=0;exitDx=0;exitDy=0;" parent="1" source="_ZFDlXhqXRM0hez-_a2L-4" target="_ZFDlXhqXRM0hez-_a2L-54" edge="1"><mxGeometry width="50" height="50" relative="1" as="geometry"><mxPoint x="140" y="-1730" as="sourcePoint"/><mxPoint x="250" y="-1780" as="targetPoint"/></mxGeometry></mxCell><mxCell id="_ZFDlXhqXRM0hez-_a2L-56" value="账号" style="ellipse;whiteSpace=wrap;html=1;" parent="1" vertex="1"><mxGeometry x="40" y="-1770" width="70" height="40" as="geometry"/></mxCell><mxCell id="_ZFDlXhqXRM0hez-_a2L-57" value="" style="endArrow=none;html=1;rounded=0;fontSize=14;entryX=1;entryY=1;entryDx=0;entryDy=0;exitX=0.25;exitY=0;exitDx=0;exitDy=0;" parent="1" source="_ZFDlXhqXRM0hez-_a2L-4" target="_ZFDlXhqXRM0hez-_a2L-56" edge="1"><mxGeometry width="50" height="50" relative="1" as="geometry"><mxPoint x="110.00000000000011" y="-1660" as="sourcePoint"/><mxPoint x="220" y="-1710" as="targetPoint"/></mxGeometry></mxCell><mxCell id="_ZFDlXhqXRM0hez-_a2L-58" value="昵称" style="ellipse;whiteSpace=wrap;html=1;" parent="1" vertex="1"><mxGeometry x="10" y="-1730" width="70" height="40" as="geometry"/></mxCell><mxCell id="_ZFDlXhqXRM0hez-_a2L-59" value="" style="endArrow=none;html=1;rounded=0;fontSize=14;entryX=1;entryY=0.5;entryDx=0;entryDy=0;exitX=0;exitY=0.25;exitDx=0;exitDy=0;" parent="1" source="_ZFDlXhqXRM0hez-_a2L-4" target="_ZFDlXhqXRM0hez-_a2L-58" edge="1"><mxGeometry width="50" height="50" relative="1" as="geometry"><mxPoint x="120.00000000000011" y="-1590" as="sourcePoint"/><mxPoint x="230" y="-1640" as="targetPoint"/></mxGeometry></mxCell><mxCell id="_ZFDlXhqXRM0hez-_a2L-60" value="密码" style="ellipse;whiteSpace=wrap;html=1;" parent="1" vertex="1"><mxGeometry x="10" y="-1685" width="70" height="40" as="geometry"/></mxCell><mxCell id="_ZFDlXhqXRM0hez-_a2L-61" value="" style="endArrow=none;html=1;rounded=0;fontSize=14;entryX=0.973;entryY=0.351;entryDx=0;entryDy=0;exitX=0;exitY=0.5;exitDx=0;exitDy=0;entryPerimeter=0;" parent="1" source="_ZFDlXhqXRM0hez-_a2L-4" target="_ZFDlXhqXRM0hez-_a2L-60" edge="1"><mxGeometry width="50" height="50" relative="1" as="geometry"><mxPoint x="125" y="-1560" as="sourcePoint"/><mxPoint x="235" y="-1610" as="targetPoint"/></mxGeometry></mxCell><mxCell id="_ZFDlXhqXRM0hez-_a2L-62" value="头像" style="ellipse;whiteSpace=wrap;html=1;" parent="1" vertex="1"><mxGeometry x="20" y="-1640" width="70" height="40" as="geometry"/></mxCell><mxCell id="_ZFDlXhqXRM0hez-_a2L-63" value="" style="endArrow=none;html=1;rounded=0;fontSize=14;entryX=1;entryY=0.5;entryDx=0;entryDy=0;exitX=0;exitY=0.5;exitDx=0;exitDy=0;" parent="1" source="_ZFDlXhqXRM0hez-_a2L-4" target="_ZFDlXhqXRM0hez-_a2L-62" edge="1"><mxGeometry width="50" height="50" relative="1" as="geometry"><mxPoint x="120.00000000000011" y="-1570" as="sourcePoint"/><mxPoint x="230" y="-1620" as="targetPoint"/></mxGeometry></mxCell><mxCell id="_ZFDlXhqXRM0hez-_a2L-64" value="生日" style="ellipse;whiteSpace=wrap;html=1;" parent="1" vertex="1"><mxGeometry x="40" y="-1590" width="70" height="40" as="geometry"/></mxCell><mxCell id="_ZFDlXhqXRM0hez-_a2L-65" value="" style="endArrow=none;html=1;rounded=0;fontSize=14;entryX=0.5;entryY=0;entryDx=0;entryDy=0;exitX=0;exitY=1;exitDx=0;exitDy=0;" parent="1" source="_ZFDlXhqXRM0hez-_a2L-4" target="_ZFDlXhqXRM0hez-_a2L-64" edge="1"><mxGeometry width="50" height="50" relative="1" as="geometry"><mxPoint x="170.0000000000001" y="-1530" as="sourcePoint"/><mxPoint x="280" y="-1580" as="targetPoint"/></mxGeometry></mxCell><mxCell id="_ZFDlXhqXRM0hez-_a2L-66" value="电子邮箱" style="ellipse;whiteSpace=wrap;html=1;" parent="1" vertex="1"><mxGeometry x="80" y="-1540" width="70" height="40" as="geometry"/></mxCell><mxCell id="_ZFDlXhqXRM0hez-_a2L-67" value="" style="endArrow=none;html=1;rounded=0;fontSize=14;entryX=0.5;entryY=0;entryDx=0;entryDy=0;exitX=0.25;exitY=1;exitDx=0;exitDy=0;" parent="1" source="_ZFDlXhqXRM0hez-_a2L-4" target="_ZFDlXhqXRM0hez-_a2L-66" edge="1"><mxGeometry width="50" height="50" relative="1" as="geometry"><mxPoint x="150.0000000000001" y="-1640" as="sourcePoint"/><mxPoint x="360" y="-1565" as="targetPoint"/></mxGeometry></mxCell><mxCell id="_ZFDlXhqXRM0hez-_a2L-68" value="手机号码" style="ellipse;whiteSpace=wrap;html=1;" parent="1" vertex="1"><mxGeometry x="155" y="-1550" width="70" height="40" as="geometry"/></mxCell><mxCell id="_ZFDlXhqXRM0hez-_a2L-69" value="" style="endArrow=none;html=1;rounded=0;fontSize=14;entryX=0.5;entryY=0;entryDx=0;entryDy=0;exitX=0.5;exitY=1;exitDx=0;exitDy=0;" parent="1" source="_ZFDlXhqXRM0hez-_a2L-4" target="_ZFDlXhqXRM0hez-_a2L-68" edge="1"><mxGeometry width="50" height="50" relative="1" as="geometry"><mxPoint x="250.0000000000001" y="-1645" as="sourcePoint"/><mxPoint x="440" y="-1565" as="targetPoint"/></mxGeometry></mxCell><mxCell id="_ZFDlXhqXRM0hez-_a2L-70" value="注册时间" style="ellipse;whiteSpace=wrap;html=1;" parent="1" vertex="1"><mxGeometry x="225" y="-1560" width="70" height="40" as="geometry"/></mxCell><mxCell id="_ZFDlXhqXRM0hez-_a2L-71" value="" style="endArrow=none;html=1;rounded=0;fontSize=14;entryX=0.5;entryY=0;entryDx=0;entryDy=0;exitX=0.5;exitY=1;exitDx=0;exitDy=0;" parent="1" source="_ZFDlXhqXRM0hez-_a2L-4" target="_ZFDlXhqXRM0hez-_a2L-70" edge="1"><mxGeometry width="50" height="50" relative="1" as="geometry"><mxPoint x="270.0000000000001" y="-1650" as="sourcePoint"/><mxPoint x="460" y="-1570" as="targetPoint"/></mxGeometry></mxCell><mxCell id="_ZFDlXhqXRM0hez-_a2L-72" value="是否禁用" style="ellipse;whiteSpace=wrap;html=1;" parent="1" vertex="1"><mxGeometry x="280" y="-1600" width="70" height="40" as="geometry"/></mxCell><mxCell id="_ZFDlXhqXRM0hez-_a2L-73" value="" style="endArrow=none;html=1;rounded=0;fontSize=14;entryX=0.5;entryY=0;entryDx=0;entryDy=0;exitX=0.75;exitY=1;exitDx=0;exitDy=0;" parent="1" source="_ZFDlXhqXRM0hez-_a2L-4" target="_ZFDlXhqXRM0hez-_a2L-72" edge="1"><mxGeometry width="50" height="50" relative="1" as="geometry"><mxPoint x="330.0000000000001" y="-1690" as="sourcePoint"/><mxPoint x="520" y="-1610" as="targetPoint"/></mxGeometry></mxCell><mxCell id="_ZFDlXhqXRM0hez-_a2L-74" value="编号" style="ellipse;whiteSpace=wrap;html=1;" parent="1" vertex="1"><mxGeometry x="360" y="-1620" width="70" height="40" as="geometry"/></mxCell><mxCell id="_ZFDlXhqXRM0hez-_a2L-75" value="" style="endArrow=none;html=1;rounded=0;fontSize=14;entryX=0.5;entryY=0;entryDx=0;entryDy=0;exitX=0;exitY=1;exitDx=0;exitDy=0;" parent="1" source="_ZFDlXhqXRM0hez-_a2L-5" target="_ZFDlXhqXRM0hez-_a2L-74" edge="1"><mxGeometry width="50" height="50" relative="1" as="geometry"><mxPoint x="400.0000000000001" y="-1685" as="sourcePoint"/><mxPoint x="590" y="-1605" as="targetPoint"/></mxGeometry></mxCell><mxCell id="_ZFDlXhqXRM0hez-_a2L-76" value="发布时间" style="ellipse;whiteSpace=wrap;html=1;" parent="1" vertex="1"><mxGeometry x="450" y="-1580" width="70" height="40" as="geometry"/></mxCell><mxCell id="_ZFDlXhqXRM0hez-_a2L-77" value="" style="endArrow=none;html=1;rounded=0;fontSize=14;entryX=0.5;entryY=0;entryDx=0;entryDy=0;exitX=0.5;exitY=1;exitDx=0;exitDy=0;" parent="1" source="_ZFDlXhqXRM0hez-_a2L-5" target="_ZFDlXhqXRM0hez-_a2L-76" edge="1"><mxGeometry width="50" height="50" relative="1" as="geometry"><mxPoint x="510" y="-1640" as="sourcePoint"/><mxPoint x="660" y="-1585" as="targetPoint"/></mxGeometry></mxCell><mxCell id="_ZFDlXhqXRM0hez-_a2L-78" value="IP地址" style="ellipse;whiteSpace=wrap;html=1;" parent="1" vertex="1"><mxGeometry x="500" y="-1540" width="70" height="40" as="geometry"/></mxCell><mxCell id="_ZFDlXhqXRM0hez-_a2L-79" value="" style="endArrow=none;html=1;rounded=0;fontSize=14;entryX=0.5;entryY=0;entryDx=0;entryDy=0;exitX=0.5;exitY=1;exitDx=0;exitDy=0;" parent="1" source="_ZFDlXhqXRM0hez-_a2L-5" target="_ZFDlXhqXRM0hez-_a2L-78" edge="1"><mxGeometry width="50" height="50" relative="1" as="geometry"><mxPoint x="500" y="-1635" as="sourcePoint"/><mxPoint x="720" y="-1545" as="targetPoint"/></mxGeometry></mxCell><mxCell id="_ZFDlXhqXRM0hez-_a2L-80" value="是否隐藏" style="ellipse;whiteSpace=wrap;html=1;" parent="1" vertex="1"><mxGeometry x="540" y="-1590" width="70" height="40" as="geometry"/></mxCell><mxCell id="_ZFDlXhqXRM0hez-_a2L-81" value="" style="endArrow=none;html=1;rounded=0;fontSize=14;entryX=0.5;entryY=0;entryDx=0;entryDy=0;exitX=0.5;exitY=1;exitDx=0;exitDy=0;" parent="1" source="_ZFDlXhqXRM0hez-_a2L-5" target="_ZFDlXhqXRM0hez-_a2L-80" edge="1"><mxGeometry width="50" height="50" relative="1" as="geometry"><mxPoint x="510" y="-1620" as="sourcePoint"/><mxPoint x="780" y="-1560" as="targetPoint"/></mxGeometry></mxCell><mxCell id="_ZFDlXhqXRM0hez-_a2L-82" value="点赞数" style="ellipse;whiteSpace=wrap;html=1;" parent="1" vertex="1"><mxGeometry x="615" y="-1570" width="70" height="40" as="geometry"/></mxCell><mxCell id="_ZFDlXhqXRM0hez-_a2L-83" value="" style="endArrow=none;html=1;rounded=0;fontSize=14;entryX=0.5;entryY=0;entryDx=0;entryDy=0;exitX=0.75;exitY=1;exitDx=0;exitDy=0;" parent="1" source="_ZFDlXhqXRM0hez-_a2L-5" target="_ZFDlXhqXRM0hez-_a2L-82" edge="1"><mxGeometry width="50" height="50" relative="1" as="geometry"><mxPoint x="540" y="-1625" as="sourcePoint"/><mxPoint x="870" y="-1615" as="targetPoint"/></mxGeometry></mxCell><mxCell id="_ZFDlXhqXRM0hez-_a2L-84" value="点踩数" style="ellipse;whiteSpace=wrap;html=1;" parent="1" vertex="1"><mxGeometry x="655" y="-1610" width="70" height="40" as="geometry"/></mxCell><mxCell id="_ZFDlXhqXRM0hez-_a2L-85" value="" style="endArrow=none;html=1;rounded=0;fontSize=14;entryX=0.5;entryY=0;entryDx=0;entryDy=0;exitX=1;exitY=1;exitDx=0;exitDy=0;" parent="1" source="_ZFDlXhqXRM0hez-_a2L-5" target="_ZFDlXhqXRM0hez-_a2L-84" edge="1"><mxGeometry width="50" height="50" relative="1" as="geometry"><mxPoint x="570" y="-1685" as="sourcePoint"/><mxPoint x="910" y="-1655" as="targetPoint"/></mxGeometry></mxCell><mxCell id="_ZFDlXhqXRM0hez-_a2L-86" value="回复" style="rhombus;whiteSpace=wrap;html=1;" parent="1" vertex="1"><mxGeometry x="605" y="-1695" width="80" height="50" as="geometry"/></mxCell><mxCell id="_ZFDlXhqXRM0hez-_a2L-87" value="" style="endArrow=none;html=1;rounded=0;exitX=1;exitY=0;exitDx=0;exitDy=0;entryX=0.5;entryY=0;entryDx=0;entryDy=0;" parent="1" source="_ZFDlXhqXRM0hez-_a2L-5" target="_ZFDlXhqXRM0hez-_a2L-86" edge="1"><mxGeometry width="50" height="50" relative="1" as="geometry"><mxPoint x="570" y="-1710" as="sourcePoint"/><mxPoint x="649.9999999999999" y="-1710" as="targetPoint"/></mxGeometry></mxCell><mxCell id="_ZFDlXhqXRM0hez-_a2L-88" value="1" style="edgeLabel;html=1;align=center;verticalAlign=middle;resizable=0;points=[];fontStyle=1;fontSize=14;" parent="_ZFDlXhqXRM0hez-_a2L-87" vertex="1" connectable="0"><mxGeometry x="-0.3683" y="1" relative="1" as="geometry"><mxPoint x="15" y="1" as="offset"/></mxGeometry></mxCell><mxCell id="_ZFDlXhqXRM0hez-_a2L-89" value="N" style="endArrow=none;html=1;rounded=0;exitX=1;exitY=1;exitDx=0;exitDy=0;entryX=0.5;entryY=1;entryDx=0;entryDy=0;fontStyle=1;fontSize=14;" parent="1" source="_ZFDlXhqXRM0hez-_a2L-5" target="_ZFDlXhqXRM0hez-_a2L-86" edge="1"><mxGeometry width="50" height="50" relative="1" as="geometry"><mxPoint x="580" y="-1650" as="sourcePoint"/><mxPoint x="660" y="-1650" as="targetPoint"/><Array as="points"/></mxGeometry></mxCell><mxCell id="_ZFDlXhqXRM0hez-_a2L-90" value="内容" style="ellipse;whiteSpace=wrap;html=1;" parent="1" vertex="1"><mxGeometry x="370" y="-1570" width="70" height="40" as="geometry"/></mxCell><mxCell id="_ZFDlXhqXRM0hez-_a2L-91" value="" style="endArrow=none;html=1;rounded=0;fontSize=14;entryX=0.5;entryY=0;entryDx=0;entryDy=0;exitX=0.25;exitY=1;exitDx=0;exitDy=0;" parent="1" source="_ZFDlXhqXRM0hez-_a2L-5" target="_ZFDlXhqXRM0hez-_a2L-90" edge="1"><mxGeometry width="50" height="50" relative="1" as="geometry"><mxPoint x="470" y="-1600" as="sourcePoint"/><mxPoint x="590" y="-1560" as="targetPoint"/></mxGeometry></mxCell><mxCell id="M46dGOoL9Sd2cU65AmrB-6" value="游戏本体社区" style="whiteSpace=wrap;html=1;align=center;" parent="1" vertex="1"><mxGeometry x="2070" y="-1945" width="80" height="50" as="geometry"/></mxCell><mxCell id="M46dGOoL9Sd2cU65AmrB-7" value="&lt;span style=&quot;text-align: left;&quot;&gt;游戏类型分类&lt;/span&gt;" style="whiteSpace=wrap;html=1;align=center;" parent="1" vertex="1"><mxGeometry x="2220" y="-2075" width="80" height="50" as="geometry"/></mxCell><mxCell id="M46dGOoL9Sd2cU65AmrB-8" value="审核" style="rhombus;whiteSpace=wrap;html=1;" parent="1" vertex="1"><mxGeometry x="1560" y="-2075" width="80" height="50" as="geometry"/></mxCell><mxCell id="M46dGOoL9Sd2cU65AmrB-9" value="属于" style="rhombus;whiteSpace=wrap;html=1;" parent="1" vertex="1"><mxGeometry x="2020" y="-2075" width="80" height="50" as="geometry"/></mxCell><mxCell id="M46dGOoL9Sd2cU65AmrB-10" value="" style="endArrow=none;html=1;rounded=0;exitX=1;exitY=0.5;exitDx=0;exitDy=0;entryX=0;entryY=0.5;entryDx=0;entryDy=0;" parent="1" source="TT_90vYg_CvrUBnil781-1" target="M46dGOoL9Sd2cU65AmrB-8" edge="1"><mxGeometry width="50" height="50" relative="1" as="geometry"><mxPoint x="1480" y="-2050" as="sourcePoint"/><mxPoint x="1655" y="-2124" as="targetPoint"/></mxGeometry></mxCell><mxCell id="M46dGOoL9Sd2cU65AmrB-11" value="1" style="edgeLabel;html=1;align=center;verticalAlign=middle;resizable=0;points=[];fontStyle=1;fontSize=14;" parent="M46dGOoL9Sd2cU65AmrB-10" vertex="1" connectable="0"><mxGeometry x="-0.3683" y="1" relative="1" as="geometry"><mxPoint x="15" y="1" as="offset"/></mxGeometry></mxCell><mxCell id="M46dGOoL9Sd2cU65AmrB-12" value="N" style="endArrow=none;html=1;rounded=0;exitX=1;exitY=0.5;exitDx=0;exitDy=0;entryX=0;entryY=0.5;entryDx=0;entryDy=0;fontStyle=1;fontSize=14;" parent="1" source="M46dGOoL9Sd2cU65AmrB-8" target="TT_90vYg_CvrUBnil781-10" edge="1"><mxGeometry width="50" height="50" relative="1" as="geometry"><mxPoint x="1660" y="-2075" as="sourcePoint"/><mxPoint x="1720" y="-2050" as="targetPoint"/><Array as="points"><mxPoint x="1680" y="-2050"/></Array></mxGeometry></mxCell><mxCell id="M46dGOoL9Sd2cU65AmrB-13" value="N" style="endArrow=none;html=1;rounded=0;exitX=1;exitY=0.5;exitDx=0;exitDy=0;entryX=0;entryY=0.5;entryDx=0;entryDy=0;fontStyle=1;fontSize=14;" parent="1" source="M46dGOoL9Sd2cU65AmrB-9" target="M46dGOoL9Sd2cU65AmrB-7" edge="1"><mxGeometry width="50" height="50" relative="1" as="geometry"><mxPoint x="1950" y="-2125" as="sourcePoint"/><mxPoint x="2030" y="-2125" as="targetPoint"/><Array as="points"/></mxGeometry></mxCell><mxCell id="M46dGOoL9Sd2cU65AmrB-14" value="M" style="endArrow=none;html=1;rounded=0;exitX=1;exitY=0.5;exitDx=0;exitDy=0;entryX=0;entryY=0.5;entryDx=0;entryDy=0;fontStyle=1;fontSize=14;" parent="1" source="TT_90vYg_CvrUBnil781-10" target="M46dGOoL9Sd2cU65AmrB-9" edge="1"><mxGeometry x="-0.0382" y="-1" width="50" height="50" relative="1" as="geometry"><mxPoint x="1800" y="-2050" as="sourcePoint"/><mxPoint x="2010" y="-2180" as="targetPoint"/><Array as="points"/><mxPoint as="offset"/></mxGeometry></mxCell><mxCell id="M46dGOoL9Sd2cU65AmrB-15" value="属于" style="rhombus;whiteSpace=wrap;html=1;" parent="1" vertex="1"><mxGeometry x="1900" y="-1995" width="80" height="50" as="geometry"/></mxCell><mxCell id="M46dGOoL9Sd2cU65AmrB-16" value="1" style="endArrow=none;html=1;rounded=0;exitX=1;exitY=0.5;exitDx=0;exitDy=0;entryX=0;entryY=0.5;entryDx=0;entryDy=0;fontStyle=1;fontSize=14;" parent="1" source="M46dGOoL9Sd2cU65AmrB-15" target="M46dGOoL9Sd2cU65AmrB-6" edge="1"><mxGeometry width="50" height="50" relative="1" as="geometry"><mxPoint x="1940" y="-1975" as="sourcePoint"/><mxPoint x="1990" y="-2040" as="targetPoint"/><Array as="points"/></mxGeometry></mxCell><mxCell id="M46dGOoL9Sd2cU65AmrB-17" value="N" style="endArrow=none;html=1;rounded=0;exitX=1;exitY=0.5;exitDx=0;exitDy=0;entryX=0;entryY=0.5;entryDx=0;entryDy=0;fontStyle=1;fontSize=14;" parent="1" source="TT_90vYg_CvrUBnil781-10" target="M46dGOoL9Sd2cU65AmrB-15" edge="1"><mxGeometry x="-0.0382" y="-1" width="50" height="50" relative="1" as="geometry"><mxPoint x="1800" y="-2050" as="sourcePoint"/><mxPoint x="2000" y="-2030" as="targetPoint"/><Array as="points"/><mxPoint as="offset"/></mxGeometry></mxCell><mxCell id="M46dGOoL9Sd2cU65AmrB-18" value="发布" style="rhombus;whiteSpace=wrap;html=1;" parent="1" vertex="1"><mxGeometry x="1560" y="-1770" width="80" height="50" as="geometry"/></mxCell><mxCell id="M46dGOoL9Sd2cU65AmrB-19" value="" style="endArrow=none;html=1;rounded=0;exitX=1;exitY=0.5;exitDx=0;exitDy=0;entryX=0;entryY=0.5;entryDx=0;entryDy=0;" parent="1" source="TT_90vYg_CvrUBnil781-47" target="M46dGOoL9Sd2cU65AmrB-18" edge="1"><mxGeometry width="50" height="50" relative="1" as="geometry"><mxPoint x="1480" y="-1745" as="sourcePoint"/><mxPoint x="1655" y="-1819" as="targetPoint"/></mxGeometry></mxCell><mxCell id="M46dGOoL9Sd2cU65AmrB-20" value="1" style="edgeLabel;html=1;align=center;verticalAlign=middle;resizable=0;points=[];fontStyle=1;fontSize=14;" parent="M46dGOoL9Sd2cU65AmrB-19" vertex="1" connectable="0"><mxGeometry x="-0.3683" y="1" relative="1" as="geometry"><mxPoint x="15" y="1" as="offset"/></mxGeometry></mxCell><mxCell id="M46dGOoL9Sd2cU65AmrB-21" value="N" style="endArrow=none;html=1;rounded=0;exitX=1;exitY=0.5;exitDx=0;exitDy=0;entryX=0;entryY=0.5;entryDx=0;entryDy=0;fontStyle=1;fontSize=14;" parent="1" source="M46dGOoL9Sd2cU65AmrB-18" target="TT_90vYg_CvrUBnil781-69" edge="1"><mxGeometry width="50" height="50" relative="1" as="geometry"><mxPoint x="1660" y="-1770" as="sourcePoint"/><mxPoint x="1720" y="-1745" as="targetPoint"/><Array as="points"><mxPoint x="1680" y="-1745"/></Array></mxGeometry></mxCell><mxCell id="M46dGOoL9Sd2cU65AmrB-22" value="拥有" style="rhombus;whiteSpace=wrap;html=1;" parent="1" vertex="1"><mxGeometry x="1720" y="-1935" width="80" height="50" as="geometry"/></mxCell><mxCell id="M46dGOoL9Sd2cU65AmrB-23" value="1" style="endArrow=none;html=1;rounded=0;exitX=0.5;exitY=1;exitDx=0;exitDy=0;entryX=0.5;entryY=0;entryDx=0;entryDy=0;fontStyle=1;fontSize=14;" parent="1" source="TT_90vYg_CvrUBnil781-10" target="M46dGOoL9Sd2cU65AmrB-22" edge="1"><mxGeometry width="50" height="50" relative="1" as="geometry"><mxPoint x="1760" y="-2025" as="sourcePoint"/><mxPoint x="1845" y="-1974" as="targetPoint"/></mxGeometry></mxCell><mxCell id="M46dGOoL9Sd2cU65AmrB-24" value="N" style="endArrow=none;html=1;rounded=0;exitX=0.5;exitY=1;exitDx=0;exitDy=0;fontStyle=1;fontSize=14;entryX=0.5;entryY=0;entryDx=0;entryDy=0;" parent="1" source="M46dGOoL9Sd2cU65AmrB-22" target="TT_90vYg_CvrUBnil781-69" edge="1"><mxGeometry width="50" height="50" relative="1" as="geometry"><mxPoint x="1850" y="-1925" as="sourcePoint"/><mxPoint x="1760" y="-1770" as="targetPoint"/><Array as="points"><mxPoint x="1760" y="-1845"/></Array></mxGeometry></mxCell><mxCell id="M46dGOoL9Sd2cU65AmrB-29" value="发布" style="rhombus;whiteSpace=wrap;html=1;" parent="1" vertex="1"><mxGeometry x="1560" y="-1935" width="80" height="50" as="geometry"/></mxCell><mxCell id="M46dGOoL9Sd2cU65AmrB-30" value="" style="endArrow=none;html=1;rounded=0;exitX=1;exitY=0;exitDx=0;exitDy=0;entryX=0.5;entryY=1;entryDx=0;entryDy=0;" parent="1" source="TT_90vYg_CvrUBnil781-47" target="M46dGOoL9Sd2cU65AmrB-29" edge="1"><mxGeometry width="50" height="50" relative="1" as="geometry"><mxPoint x="1480" y="-1770" as="sourcePoint"/><mxPoint x="1590" y="-1984" as="targetPoint"/></mxGeometry></mxCell><mxCell id="M46dGOoL9Sd2cU65AmrB-31" value="1" style="edgeLabel;html=1;align=center;verticalAlign=middle;resizable=0;points=[];fontStyle=1;fontSize=14;" parent="M46dGOoL9Sd2cU65AmrB-30" vertex="1" connectable="0"><mxGeometry x="-0.3683" y="1" relative="1" as="geometry"><mxPoint x="37" y="-28" as="offset"/></mxGeometry></mxCell><mxCell id="M46dGOoL9Sd2cU65AmrB-32" value="N" style="endArrow=none;html=1;rounded=0;exitX=0.5;exitY=0;exitDx=0;exitDy=0;entryX=0;entryY=0.5;entryDx=0;entryDy=0;fontStyle=1;fontSize=14;" parent="1" source="M46dGOoL9Sd2cU65AmrB-29" target="TT_90vYg_CvrUBnil781-10" edge="1"><mxGeometry width="50" height="50" relative="1" as="geometry"><mxPoint x="1595" y="-1935" as="sourcePoint"/><mxPoint x="1720" y="-2050" as="targetPoint"/><Array as="points"/></mxGeometry></mxCell><mxCell id="TT_90vYg_CvrUBnil781-1" value="管理员" style="whiteSpace=wrap;html=1;align=center;" parent="1" vertex="1"><mxGeometry x="1400" y="-2075" width="80" height="50" as="geometry"/></mxCell><mxCell id="TT_90vYg_CvrUBnil781-2" value="编号" style="ellipse;whiteSpace=wrap;html=1;" parent="1" vertex="1"><mxGeometry x="1320" y="-2165" width="70" height="40" as="geometry"/></mxCell><mxCell id="TT_90vYg_CvrUBnil781-3" value="" style="endArrow=none;html=1;rounded=0;fontSize=14;entryX=0.5;entryY=1;entryDx=0;entryDy=0;exitX=0;exitY=0.25;exitDx=0;exitDy=0;" parent="1" source="TT_90vYg_CvrUBnil781-1" target="TT_90vYg_CvrUBnil781-2" edge="1"><mxGeometry width="50" height="50" relative="1" as="geometry"><mxPoint x="1510" y="-2055" as="sourcePoint"/><mxPoint x="1560" y="-2105" as="targetPoint"/></mxGeometry></mxCell><mxCell id="TT_90vYg_CvrUBnil781-4" value="账号" style="ellipse;whiteSpace=wrap;html=1;" parent="1" vertex="1"><mxGeometry x="1290" y="-2115" width="70" height="40" as="geometry"/></mxCell><mxCell id="TT_90vYg_CvrUBnil781-5" value="" style="endArrow=none;html=1;rounded=0;fontSize=14;entryX=1;entryY=1;entryDx=0;entryDy=0;exitX=0;exitY=0.5;exitDx=0;exitDy=0;" parent="1" source="TT_90vYg_CvrUBnil781-1" target="TT_90vYg_CvrUBnil781-4" edge="1"><mxGeometry width="50" height="50" relative="1" as="geometry"><mxPoint x="1400" y="-2025" as="sourcePoint"/><mxPoint x="1520" y="-2055" as="targetPoint"/></mxGeometry></mxCell><mxCell id="TT_90vYg_CvrUBnil781-6" value="姓名" style="ellipse;whiteSpace=wrap;html=1;" parent="1" vertex="1"><mxGeometry x="1290" y="-1990" width="70" height="40" as="geometry"/></mxCell><mxCell id="TT_90vYg_CvrUBnil781-7" value="" style="endArrow=none;html=1;rounded=0;fontSize=14;entryX=1;entryY=0.5;entryDx=0;entryDy=0;exitX=0;exitY=0.75;exitDx=0;exitDy=0;" parent="1" source="TT_90vYg_CvrUBnil781-1" target="TT_90vYg_CvrUBnil781-6" edge="1"><mxGeometry width="50" height="50" relative="1" as="geometry"><mxPoint x="1375" y="-1935" as="sourcePoint"/><mxPoint x="1495" y="-1965" as="targetPoint"/></mxGeometry></mxCell><mxCell id="TT_90vYg_CvrUBnil781-8" value="密码" style="ellipse;whiteSpace=wrap;html=1;" parent="1" vertex="1"><mxGeometry x="1290" y="-2055" width="70" height="40" as="geometry"/></mxCell><mxCell id="TT_90vYg_CvrUBnil781-9" value="" style="endArrow=none;html=1;rounded=0;fontSize=14;entryX=1;entryY=0.5;entryDx=0;entryDy=0;" parent="1" target="TT_90vYg_CvrUBnil781-8" edge="1"><mxGeometry width="50" height="50" relative="1" as="geometry"><mxPoint x="1400" y="-2045" as="sourcePoint"/><mxPoint x="1360" y="-1965" as="targetPoint"/></mxGeometry></mxCell><mxCell id="TT_90vYg_CvrUBnil781-10" value="帖子" style="whiteSpace=wrap;html=1;align=center;" parent="1" vertex="1"><mxGeometry x="1720" y="-2075" width="80" height="50" as="geometry"/></mxCell><mxCell id="TT_90vYg_CvrUBnil781-11" value="编号" style="ellipse;whiteSpace=wrap;html=1;" parent="1" vertex="1"><mxGeometry x="1570" y="-2175" width="70" height="40" as="geometry"/></mxCell><mxCell id="TT_90vYg_CvrUBnil781-12" value="" style="endArrow=none;html=1;rounded=0;fontSize=14;entryX=1;entryY=1;entryDx=0;entryDy=0;exitX=0;exitY=0;exitDx=0;exitDy=0;" parent="1" source="TT_90vYg_CvrUBnil781-10" target="TT_90vYg_CvrUBnil781-11" edge="1"><mxGeometry width="50" height="50" relative="1" as="geometry"><mxPoint x="1760" y="-2105" as="sourcePoint"/><mxPoint x="1880" y="-2135" as="targetPoint"/></mxGeometry></mxCell><mxCell id="TT_90vYg_CvrUBnil781-13" value="标题" style="ellipse;whiteSpace=wrap;html=1;" parent="1" vertex="1"><mxGeometry x="1630" y="-2225" width="70" height="40" as="geometry"/></mxCell><mxCell id="TT_90vYg_CvrUBnil781-14" value="" style="endArrow=none;html=1;rounded=0;fontSize=14;entryX=0.5;entryY=1;entryDx=0;entryDy=0;exitX=0.25;exitY=0;exitDx=0;exitDy=0;" parent="1" source="TT_90vYg_CvrUBnil781-10" target="TT_90vYg_CvrUBnil781-13" edge="1"><mxGeometry width="50" height="50" relative="1" as="geometry"><mxPoint x="1730" y="-2085" as="sourcePoint"/><mxPoint x="1890" y="-2145" as="targetPoint"/></mxGeometry></mxCell><mxCell id="TT_90vYg_CvrUBnil781-15" value="图片" style="ellipse;whiteSpace=wrap;html=1;" parent="1" vertex="1"><mxGeometry x="1700" y="-2235" width="70" height="40" as="geometry"/></mxCell><mxCell id="TT_90vYg_CvrUBnil781-16" value="" style="endArrow=none;html=1;rounded=0;fontSize=14;entryX=0.5;entryY=1;entryDx=0;entryDy=0;exitX=0.5;exitY=0;exitDx=0;exitDy=0;" parent="1" source="TT_90vYg_CvrUBnil781-10" target="TT_90vYg_CvrUBnil781-15" edge="1"><mxGeometry width="50" height="50" relative="1" as="geometry"><mxPoint x="1830" y="-2135" as="sourcePoint"/><mxPoint x="1950" y="-2165" as="targetPoint"/></mxGeometry></mxCell><mxCell id="TT_90vYg_CvrUBnil781-17" value="发布时间" style="ellipse;whiteSpace=wrap;html=1;" parent="1" vertex="1"><mxGeometry x="1855" y="-2225" width="70" height="40" as="geometry"/></mxCell><mxCell id="TT_90vYg_CvrUBnil781-18" value="" style="endArrow=none;html=1;rounded=0;fontSize=14;entryX=0.5;entryY=1;entryDx=0;entryDy=0;exitX=0.75;exitY=0;exitDx=0;exitDy=0;" parent="1" source="TT_90vYg_CvrUBnil781-10" target="TT_90vYg_CvrUBnil781-17" edge="1"><mxGeometry width="50" height="50" relative="1" as="geometry"><mxPoint x="1900" y="-2115" as="sourcePoint"/><mxPoint x="2020" y="-2145" as="targetPoint"/></mxGeometry></mxCell><mxCell id="TT_90vYg_CvrUBnil781-19" value="内容" style="ellipse;whiteSpace=wrap;html=1;" parent="1" vertex="1"><mxGeometry x="1775" y="-2235" width="70" height="40" as="geometry"/></mxCell><mxCell id="TT_90vYg_CvrUBnil781-20" value="" style="endArrow=none;html=1;rounded=0;fontSize=14;entryX=0.5;entryY=1;entryDx=0;entryDy=0;" parent="1" target="TT_90vYg_CvrUBnil781-19" edge="1"><mxGeometry width="50" height="50" relative="1" as="geometry"><mxPoint x="1760" y="-2075" as="sourcePoint"/><mxPoint x="2120" y="-2135" as="targetPoint"/></mxGeometry></mxCell><mxCell id="TT_90vYg_CvrUBnil781-23" value="阅读量" style="ellipse;whiteSpace=wrap;html=1;" parent="1" vertex="1"><mxGeometry x="1915" y="-2175" width="70" height="40" as="geometry"/></mxCell><mxCell id="TT_90vYg_CvrUBnil781-24" value="" style="endArrow=none;html=1;rounded=0;fontSize=14;entryX=0;entryY=0.5;entryDx=0;entryDy=0;exitX=1;exitY=0;exitDx=0;exitDy=0;" parent="1" source="TT_90vYg_CvrUBnil781-10" target="TT_90vYg_CvrUBnil781-23" edge="1"><mxGeometry width="50" height="50" relative="1" as="geometry"><mxPoint x="1820" y="-2085" as="sourcePoint"/><mxPoint x="2190" y="-2065" as="targetPoint"/></mxGeometry></mxCell><mxCell id="TT_90vYg_CvrUBnil781-47" value="用户" style="whiteSpace=wrap;html=1;align=center;" parent="1" vertex="1"><mxGeometry x="1400" y="-1770" width="80" height="50" as="geometry"/></mxCell><mxCell id="TT_90vYg_CvrUBnil781-48" value="1" style="edgeLabel;html=1;align=center;verticalAlign=middle;resizable=0;points=[];fontStyle=1;fontSize=14;" parent="1" vertex="1" connectable="0"><mxGeometry x="1520" y="-1745" as="geometry"/></mxCell><mxCell id="TT_90vYg_CvrUBnil781-49" value="编号" style="ellipse;whiteSpace=wrap;html=1;" parent="1" vertex="1"><mxGeometry x="1330" y="-1885" width="70" height="40" as="geometry"/></mxCell><mxCell id="TT_90vYg_CvrUBnil781-50" value="" style="endArrow=none;html=1;rounded=0;fontSize=14;entryX=1;entryY=1;entryDx=0;entryDy=0;exitX=0.5;exitY=0;exitDx=0;exitDy=0;" parent="1" source="TT_90vYg_CvrUBnil781-47" target="TT_90vYg_CvrUBnil781-49" edge="1"><mxGeometry width="50" height="50" relative="1" as="geometry"><mxPoint x="1390" y="-1805" as="sourcePoint"/><mxPoint x="1500" y="-1855" as="targetPoint"/></mxGeometry></mxCell><mxCell id="TT_90vYg_CvrUBnil781-51" value="账号" style="ellipse;whiteSpace=wrap;html=1;" parent="1" vertex="1"><mxGeometry x="1290" y="-1845" width="70" height="40" as="geometry"/></mxCell><mxCell id="TT_90vYg_CvrUBnil781-52" value="" style="endArrow=none;html=1;rounded=0;fontSize=14;entryX=1;entryY=1;entryDx=0;entryDy=0;exitX=0.25;exitY=0;exitDx=0;exitDy=0;" parent="1" source="TT_90vYg_CvrUBnil781-47" target="TT_90vYg_CvrUBnil781-51" edge="1"><mxGeometry width="50" height="50" relative="1" as="geometry"><mxPoint x="1360" y="-1735" as="sourcePoint"/><mxPoint x="1470" y="-1785" as="targetPoint"/></mxGeometry></mxCell><mxCell id="TT_90vYg_CvrUBnil781-53" value="昵称" style="ellipse;whiteSpace=wrap;html=1;" parent="1" vertex="1"><mxGeometry x="1260" y="-1760" width="70" height="40" as="geometry"/></mxCell><mxCell id="TT_90vYg_CvrUBnil781-54" value="" style="endArrow=none;html=1;rounded=0;fontSize=14;entryX=1;entryY=0.5;entryDx=0;entryDy=0;exitX=0;exitY=0.5;exitDx=0;exitDy=0;" parent="1" source="TT_90vYg_CvrUBnil781-47" target="TT_90vYg_CvrUBnil781-53" edge="1"><mxGeometry width="50" height="50" relative="1" as="geometry"><mxPoint x="1370" y="-1665" as="sourcePoint"/><mxPoint x="1480" y="-1715" as="targetPoint"/></mxGeometry></mxCell><mxCell id="TT_90vYg_CvrUBnil781-55" value="密码" style="ellipse;whiteSpace=wrap;html=1;" parent="1" vertex="1"><mxGeometry x="1260" y="-1805" width="70" height="40" as="geometry"/></mxCell><mxCell id="TT_90vYg_CvrUBnil781-56" value="" style="endArrow=none;html=1;rounded=0;fontSize=14;entryX=0.973;entryY=0.351;entryDx=0;entryDy=0;exitX=0;exitY=0.25;exitDx=0;exitDy=0;entryPerimeter=0;" parent="1" source="TT_90vYg_CvrUBnil781-47" target="TT_90vYg_CvrUBnil781-55" edge="1"><mxGeometry width="50" height="50" relative="1" as="geometry"><mxPoint x="1375" y="-1635" as="sourcePoint"/><mxPoint x="1485" y="-1685" as="targetPoint"/></mxGeometry></mxCell><mxCell id="TT_90vYg_CvrUBnil781-57" value="头像" style="ellipse;whiteSpace=wrap;html=1;" parent="1" vertex="1"><mxGeometry x="1270" y="-1715" width="70" height="40" as="geometry"/></mxCell><mxCell id="TT_90vYg_CvrUBnil781-58" value="" style="endArrow=none;html=1;rounded=0;fontSize=14;entryX=1;entryY=0.5;entryDx=0;entryDy=0;exitX=0;exitY=0.5;exitDx=0;exitDy=0;" parent="1" source="TT_90vYg_CvrUBnil781-47" target="TT_90vYg_CvrUBnil781-57" edge="1"><mxGeometry width="50" height="50" relative="1" as="geometry"><mxPoint x="1370" y="-1645" as="sourcePoint"/><mxPoint x="1480" y="-1695" as="targetPoint"/></mxGeometry></mxCell><mxCell id="TT_90vYg_CvrUBnil781-59" value="生日" style="ellipse;whiteSpace=wrap;html=1;" parent="1" vertex="1"><mxGeometry x="1290" y="-1665" width="70" height="40" as="geometry"/></mxCell><mxCell id="TT_90vYg_CvrUBnil781-60" value="" style="endArrow=none;html=1;rounded=0;fontSize=14;entryX=0.5;entryY=0;entryDx=0;entryDy=0;exitX=0;exitY=1;exitDx=0;exitDy=0;" parent="1" source="TT_90vYg_CvrUBnil781-47" target="TT_90vYg_CvrUBnil781-59" edge="1"><mxGeometry width="50" height="50" relative="1" as="geometry"><mxPoint x="1420" y="-1605" as="sourcePoint"/><mxPoint x="1530" y="-1655" as="targetPoint"/></mxGeometry></mxCell><mxCell id="TT_90vYg_CvrUBnil781-61" value="电子邮箱" style="ellipse;whiteSpace=wrap;html=1;" parent="1" vertex="1"><mxGeometry x="1330" y="-1615" width="70" height="40" as="geometry"/></mxCell><mxCell id="TT_90vYg_CvrUBnil781-62" value="" style="endArrow=none;html=1;rounded=0;fontSize=14;entryX=0.5;entryY=0;entryDx=0;entryDy=0;exitX=0.25;exitY=1;exitDx=0;exitDy=0;" parent="1" source="TT_90vYg_CvrUBnil781-47" target="TT_90vYg_CvrUBnil781-61" edge="1"><mxGeometry width="50" height="50" relative="1" as="geometry"><mxPoint x="1400" y="-1715" as="sourcePoint"/><mxPoint x="1610" y="-1640" as="targetPoint"/></mxGeometry></mxCell><mxCell id="TT_90vYg_CvrUBnil781-63" value="手机号码" style="ellipse;whiteSpace=wrap;html=1;" parent="1" vertex="1"><mxGeometry x="1405" y="-1625" width="70" height="40" as="geometry"/></mxCell><mxCell id="TT_90vYg_CvrUBnil781-64" value="" style="endArrow=none;html=1;rounded=0;fontSize=14;entryX=0.5;entryY=0;entryDx=0;entryDy=0;exitX=0.5;exitY=1;exitDx=0;exitDy=0;" parent="1" source="TT_90vYg_CvrUBnil781-47" target="TT_90vYg_CvrUBnil781-63" edge="1"><mxGeometry width="50" height="50" relative="1" as="geometry"><mxPoint x="1500" y="-1720" as="sourcePoint"/><mxPoint x="1690" y="-1640" as="targetPoint"/></mxGeometry></mxCell><mxCell id="TT_90vYg_CvrUBnil781-65" value="注册时间" style="ellipse;whiteSpace=wrap;html=1;" parent="1" vertex="1"><mxGeometry x="1475" y="-1635" width="70" height="40" as="geometry"/></mxCell><mxCell id="TT_90vYg_CvrUBnil781-66" value="" style="endArrow=none;html=1;rounded=0;fontSize=14;entryX=0.5;entryY=0;entryDx=0;entryDy=0;exitX=0.5;exitY=1;exitDx=0;exitDy=0;" parent="1" source="TT_90vYg_CvrUBnil781-47" target="TT_90vYg_CvrUBnil781-65" edge="1"><mxGeometry width="50" height="50" relative="1" as="geometry"><mxPoint x="1520" y="-1725" as="sourcePoint"/><mxPoint x="1710" y="-1645" as="targetPoint"/></mxGeometry></mxCell><mxCell id="TT_90vYg_CvrUBnil781-67" value="是否禁用" style="ellipse;whiteSpace=wrap;html=1;" parent="1" vertex="1"><mxGeometry x="1530" y="-1675" width="70" height="40" as="geometry"/></mxCell><mxCell id="TT_90vYg_CvrUBnil781-68" value="" style="endArrow=none;html=1;rounded=0;fontSize=14;entryX=0.5;entryY=0;entryDx=0;entryDy=0;exitX=0.75;exitY=1;exitDx=0;exitDy=0;" parent="1" source="TT_90vYg_CvrUBnil781-47" target="TT_90vYg_CvrUBnil781-67" edge="1"><mxGeometry width="50" height="50" relative="1" as="geometry"><mxPoint x="1580" y="-1765" as="sourcePoint"/><mxPoint x="1770" y="-1685" as="targetPoint"/></mxGeometry></mxCell><mxCell id="TT_90vYg_CvrUBnil781-69" value="评论" style="whiteSpace=wrap;html=1;align=center;" parent="1" vertex="1"><mxGeometry x="1720" y="-1770" width="80" height="50" as="geometry"/></mxCell><mxCell id="TT_90vYg_CvrUBnil781-70" value="编号" style="ellipse;whiteSpace=wrap;html=1;" parent="1" vertex="1"><mxGeometry x="1605" y="-1695" width="70" height="40" as="geometry"/></mxCell><mxCell id="TT_90vYg_CvrUBnil781-71" value="" style="endArrow=none;html=1;rounded=0;fontSize=14;entryX=0.5;entryY=0;entryDx=0;entryDy=0;exitX=0;exitY=1;exitDx=0;exitDy=0;" parent="1" source="TT_90vYg_CvrUBnil781-69" target="TT_90vYg_CvrUBnil781-70" edge="1"><mxGeometry width="50" height="50" relative="1" as="geometry"><mxPoint x="1650" y="-1760" as="sourcePoint"/><mxPoint x="1840" y="-1680" as="targetPoint"/></mxGeometry></mxCell><mxCell id="TT_90vYg_CvrUBnil781-72" value="发布时间" style="ellipse;whiteSpace=wrap;html=1;" parent="1" vertex="1"><mxGeometry x="1700" y="-1655" width="70" height="40" as="geometry"/></mxCell><mxCell id="TT_90vYg_CvrUBnil781-73" value="" style="endArrow=none;html=1;rounded=0;fontSize=14;entryX=0.5;entryY=0;entryDx=0;entryDy=0;exitX=0.5;exitY=1;exitDx=0;exitDy=0;" parent="1" source="TT_90vYg_CvrUBnil781-69" target="TT_90vYg_CvrUBnil781-72" edge="1"><mxGeometry width="50" height="50" relative="1" as="geometry"><mxPoint x="1760" y="-1715" as="sourcePoint"/><mxPoint x="1910" y="-1660" as="targetPoint"/></mxGeometry></mxCell><mxCell id="TT_90vYg_CvrUBnil781-74" value="IP地址" style="ellipse;whiteSpace=wrap;html=1;" parent="1" vertex="1"><mxGeometry x="1750" y="-1615" width="70" height="40" as="geometry"/></mxCell><mxCell id="TT_90vYg_CvrUBnil781-75" value="" style="endArrow=none;html=1;rounded=0;fontSize=14;entryX=0.5;entryY=0;entryDx=0;entryDy=0;exitX=0.5;exitY=1;exitDx=0;exitDy=0;" parent="1" source="TT_90vYg_CvrUBnil781-69" target="TT_90vYg_CvrUBnil781-74" edge="1"><mxGeometry width="50" height="50" relative="1" as="geometry"><mxPoint x="1750" y="-1710" as="sourcePoint"/><mxPoint x="1970" y="-1620" as="targetPoint"/></mxGeometry></mxCell><mxCell id="TT_90vYg_CvrUBnil781-76" value="是否隐藏" style="ellipse;whiteSpace=wrap;html=1;" parent="1" vertex="1"><mxGeometry x="1790" y="-1665" width="70" height="40" as="geometry"/></mxCell><mxCell id="TT_90vYg_CvrUBnil781-77" value="" style="endArrow=none;html=1;rounded=0;fontSize=14;entryX=0.5;entryY=0;entryDx=0;entryDy=0;exitX=0.5;exitY=1;exitDx=0;exitDy=0;" parent="1" source="TT_90vYg_CvrUBnil781-69" target="TT_90vYg_CvrUBnil781-76" edge="1"><mxGeometry width="50" height="50" relative="1" as="geometry"><mxPoint x="1760" y="-1695" as="sourcePoint"/><mxPoint x="2030" y="-1635" as="targetPoint"/></mxGeometry></mxCell><mxCell id="TT_90vYg_CvrUBnil781-78" value="点赞数" style="ellipse;whiteSpace=wrap;html=1;" parent="1" vertex="1"><mxGeometry x="1865" y="-1645" width="70" height="40" as="geometry"/></mxCell><mxCell id="TT_90vYg_CvrUBnil781-79" value="" style="endArrow=none;html=1;rounded=0;fontSize=14;entryX=0.5;entryY=0;entryDx=0;entryDy=0;exitX=0.75;exitY=1;exitDx=0;exitDy=0;" parent="1" source="TT_90vYg_CvrUBnil781-69" target="TT_90vYg_CvrUBnil781-78" edge="1"><mxGeometry width="50" height="50" relative="1" as="geometry"><mxPoint x="1790" y="-1700" as="sourcePoint"/><mxPoint x="2120" y="-1690" as="targetPoint"/></mxGeometry></mxCell><mxCell id="TT_90vYg_CvrUBnil781-80" value="点踩数" style="ellipse;whiteSpace=wrap;html=1;" parent="1" vertex="1"><mxGeometry x="1905" y="-1685" width="70" height="40" as="geometry"/></mxCell><mxCell id="TT_90vYg_CvrUBnil781-81" value="" style="endArrow=none;html=1;rounded=0;fontSize=14;entryX=0.5;entryY=0;entryDx=0;entryDy=0;exitX=1;exitY=1;exitDx=0;exitDy=0;" parent="1" source="TT_90vYg_CvrUBnil781-69" target="TT_90vYg_CvrUBnil781-80" edge="1"><mxGeometry width="50" height="50" relative="1" as="geometry"><mxPoint x="1820" y="-1760" as="sourcePoint"/><mxPoint x="2160" y="-1730" as="targetPoint"/></mxGeometry></mxCell><mxCell id="TT_90vYg_CvrUBnil781-82" value="回复" style="rhombus;whiteSpace=wrap;html=1;" parent="1" vertex="1"><mxGeometry x="1855" y="-1770" width="80" height="50" as="geometry"/></mxCell><mxCell id="TT_90vYg_CvrUBnil781-83" value="" style="endArrow=none;html=1;rounded=0;exitX=1;exitY=0;exitDx=0;exitDy=0;entryX=0.5;entryY=0;entryDx=0;entryDy=0;" parent="1" source="TT_90vYg_CvrUBnil781-69" target="TT_90vYg_CvrUBnil781-82" edge="1"><mxGeometry width="50" height="50" relative="1" as="geometry"><mxPoint x="1820" y="-1785" as="sourcePoint"/><mxPoint x="1900" y="-1785" as="targetPoint"/></mxGeometry></mxCell><mxCell id="TT_90vYg_CvrUBnil781-84" value="1" style="edgeLabel;html=1;align=center;verticalAlign=middle;resizable=0;points=[];fontStyle=1;fontSize=14;" parent="TT_90vYg_CvrUBnil781-83" vertex="1" connectable="0"><mxGeometry x="-0.3683" y="1" relative="1" as="geometry"><mxPoint x="15" y="1" as="offset"/></mxGeometry></mxCell><mxCell id="TT_90vYg_CvrUBnil781-85" value="N" style="endArrow=none;html=1;rounded=0;exitX=1;exitY=1;exitDx=0;exitDy=0;entryX=0.5;entryY=1;entryDx=0;entryDy=0;fontStyle=1;fontSize=14;" parent="1" source="TT_90vYg_CvrUBnil781-69" target="TT_90vYg_CvrUBnil781-82" edge="1"><mxGeometry width="50" height="50" relative="1" as="geometry"><mxPoint x="1830" y="-1725" as="sourcePoint"/><mxPoint x="1910" y="-1725" as="targetPoint"/><Array as="points"/></mxGeometry></mxCell><mxCell id="TT_90vYg_CvrUBnil781-86" value="内容" style="ellipse;whiteSpace=wrap;html=1;" parent="1" vertex="1"><mxGeometry x="1625" y="-1645" width="70" height="40" as="geometry"/></mxCell><mxCell id="TT_90vYg_CvrUBnil781-87" value="" style="endArrow=none;html=1;rounded=0;fontSize=14;entryX=0.5;entryY=0;entryDx=0;entryDy=0;exitX=0.25;exitY=1;exitDx=0;exitDy=0;" parent="1" source="TT_90vYg_CvrUBnil781-69" target="TT_90vYg_CvrUBnil781-86" edge="1"><mxGeometry width="50" height="50" relative="1" as="geometry"><mxPoint x="1720" y="-1675" as="sourcePoint"/><mxPoint x="1840" y="-1635" as="targetPoint"/></mxGeometry></mxCell><mxCell id="TT_90vYg_CvrUBnil781-88" value="编号" style="ellipse;whiteSpace=wrap;html=1;" parent="1" vertex="1"><mxGeometry x="2340" y="-2115" width="70" height="40" as="geometry"/></mxCell><mxCell id="TT_90vYg_CvrUBnil781-89" value="" style="endArrow=none;html=1;rounded=0;fontSize=14;entryX=0;entryY=0.5;entryDx=0;entryDy=0;exitX=1;exitY=0.5;exitDx=0;exitDy=0;" parent="1" source="M46dGOoL9Sd2cU65AmrB-7" target="TT_90vYg_CvrUBnil781-88" edge="1"><mxGeometry width="50" height="50" relative="1" as="geometry"><mxPoint x="2300" y="-2050" as="sourcePoint"/><mxPoint x="2550" y="-2095" as="targetPoint"/></mxGeometry></mxCell><mxCell id="TT_90vYg_CvrUBnil781-90" value="名称" style="ellipse;whiteSpace=wrap;html=1;" parent="1" vertex="1"><mxGeometry x="2340" y="-2025" width="70" height="40" as="geometry"/></mxCell><mxCell id="TT_90vYg_CvrUBnil781-91" value="" style="endArrow=none;html=1;rounded=0;fontSize=14;entryX=0;entryY=0.5;entryDx=0;entryDy=0;exitX=1;exitY=0.5;exitDx=0;exitDy=0;" parent="1" source="M46dGOoL9Sd2cU65AmrB-7" target="TT_90vYg_CvrUBnil781-90" edge="1"><mxGeometry width="50" height="50" relative="1" as="geometry"><mxPoint x="2300" y="-2050" as="sourcePoint"/><mxPoint x="2630" y="-1982.5" as="targetPoint"/></mxGeometry></mxCell><mxCell id="TT_90vYg_CvrUBnil781-92" value="编号" style="ellipse;whiteSpace=wrap;html=1;" parent="1" vertex="1"><mxGeometry x="2190" y="-1995" width="70" height="40" as="geometry"/></mxCell><mxCell id="TT_90vYg_CvrUBnil781-93" value="" style="endArrow=none;html=1;rounded=0;fontSize=14;entryX=0;entryY=0.5;entryDx=0;entryDy=0;exitX=1;exitY=0.5;exitDx=0;exitDy=0;" parent="1" source="M46dGOoL9Sd2cU65AmrB-6" target="TT_90vYg_CvrUBnil781-92" edge="1"><mxGeometry width="50" height="50" relative="1" as="geometry"><mxPoint x="2150" y="-1920" as="sourcePoint"/><mxPoint x="2400" y="-1965" as="targetPoint"/></mxGeometry></mxCell><mxCell id="TT_90vYg_CvrUBnil781-94" value="名称" style="ellipse;whiteSpace=wrap;html=1;" parent="1" vertex="1"><mxGeometry x="2190" y="-1940" width="70" height="40" as="geometry"/></mxCell><mxCell id="TT_90vYg_CvrUBnil781-95" value="" style="endArrow=none;html=1;rounded=0;fontSize=14;entryX=0;entryY=0.5;entryDx=0;entryDy=0;exitX=1;exitY=0.5;exitDx=0;exitDy=0;" parent="1" source="M46dGOoL9Sd2cU65AmrB-6" target="TT_90vYg_CvrUBnil781-94" edge="1"><mxGeometry width="50" height="50" relative="1" as="geometry"><mxPoint x="2150" y="-1920" as="sourcePoint"/><mxPoint x="2480" y="-1852.5" as="targetPoint"/></mxGeometry></mxCell><mxCell id="TT_90vYg_CvrUBnil781-96" style="rounded=0;orthogonalLoop=1;jettySize=auto;html=1;endArrow=none;endFill=0;horizontal=0;entryX=0;entryY=0.5;entryDx=0;entryDy=0;exitX=1;exitY=0.5;exitDx=0;exitDy=0;" parent="1" source="M46dGOoL9Sd2cU65AmrB-6" target="TT_90vYg_CvrUBnil781-97" edge="1"><mxGeometry relative="1" as="geometry"><mxPoint x="2095" y="-1925" as="sourcePoint"/></mxGeometry></mxCell><mxCell id="TT_90vYg_CvrUBnil781-97" value="商店链接" style="ellipse;whiteSpace=wrap;html=1;" parent="1" vertex="1"><mxGeometry x="2190" y="-1885" width="70" height="40" as="geometry"/></mxCell><mxCell id="3EPOaNZzrZN6rjj-xsm6-1" value="&lt;p style=&quot;line-height: 1.3; font-size: 16px;&quot;&gt;&lt;b&gt;用户&lt;/b&gt;(&lt;font style=&quot;font-size: 16px;&quot;&gt;&lt;u style=&quot;font-size: 16px;&quot;&gt;&lt;span style=&quot;font-size: 16px;&quot;&gt;编号&lt;/span&gt;&lt;/u&gt;&lt;/font&gt;&lt;font style=&quot;font-size: 16px;&quot;&gt;，账号，密码，昵称，头像，生日，电子邮件，手机号码，注册时间，是否禁用&lt;/font&gt;)&lt;/p&gt;&lt;p style=&quot;line-height: 1.3; font-size: 16px;&quot;&gt;&lt;b&gt;管理员&lt;/b&gt;(&lt;u style=&quot;font-size: 16px;&quot;&gt;编号&lt;/u&gt;，账号，密码，姓名)&lt;/p&gt;&lt;p style=&quot;line-height: 1.3; font-size: 16px;&quot;&gt;&lt;b&gt;帖子&lt;/b&gt;(&lt;u&gt;编号&lt;/u&gt;，标题，图片，内容，发布时间，阅读量，&lt;font color=&quot;#ff3333&quot;&gt;作者编号&lt;/font&gt;，&lt;font color=&quot;#ff3333&quot;&gt;审核员编号&lt;/font&gt;，&lt;font color=&quot;#ff3333&quot;&gt;社区编号&lt;/font&gt;)&lt;br&gt;&lt;/p&gt;&lt;p style=&quot;line-height: 1.3; font-size: 16px;&quot;&gt;&lt;b style=&quot;background-color: initial;&quot;&gt;评论&lt;/b&gt;&lt;span style=&quot;background-color: initial;&quot;&gt;(&lt;/span&gt;&lt;u style=&quot;background-color: initial;&quot;&gt;编号&lt;/u&gt;&lt;span style=&quot;background-color: initial;&quot;&gt;，内容，发布时间，IP地址，是否隐藏，点赞数，点踩数，&lt;/span&gt;&lt;font style=&quot;background-color: initial;&quot; color=&quot;#ff3333&quot;&gt;回复的评论编号&lt;/font&gt;&lt;span style=&quot;background-color: initial;&quot;&gt;，&lt;/span&gt;&lt;font style=&quot;background-color: initial;&quot; color=&quot;#ff3333&quot;&gt;作者编号&lt;/font&gt;&lt;span style=&quot;background-color: initial;&quot;&gt;，&lt;/span&gt;&lt;font style=&quot;background-color: initial;&quot; color=&quot;#ff3333&quot;&gt;帖子编号&lt;/font&gt;&lt;span style=&quot;background-color: initial;&quot;&gt;)&lt;/span&gt;&lt;br&gt;&lt;/p&gt;&lt;p style=&quot;line-height: 1.3; font-size: 16px;&quot;&gt;&lt;b&gt;游戏类型分类&lt;/b&gt;(&lt;u&gt;编号&lt;/u&gt;，分类名称)&lt;br&gt;&lt;/p&gt;&lt;p style=&quot;line-height: 1.3; font-size: 16px;&quot;&gt;&lt;b&gt;游戏本体社区&lt;/b&gt;(&lt;u&gt;编号&lt;/u&gt;，游戏名称，商店链接)&lt;br&gt;&lt;/p&gt;&lt;p style=&quot;line-height: 1.3; font-size: 16px;&quot;&gt;&lt;b&gt;帖子_游戏类型分类&lt;/b&gt;(&lt;font color=&quot;#ff3333&quot;&gt;帖子编号&lt;/font&gt;，&lt;font color=&quot;#ff3333&quot;&gt;分类编号&lt;/font&gt;)&lt;/p&gt;" style="text;html=1;strokeColor=none;fillColor=none;align=left;verticalAlign=top;whiteSpace=wrap;rounded=0;fontSize=16;horizontal=1;" parent="1" vertex="1"><mxGeometry x="2045" y="-1765" width="770" height="330" as="geometry"/></mxCell><mxCell id="bekkxn9jI4juC3noe-xg-2" value="&lt;span style=&quot;text-align: left;&quot;&gt;游戏类型分类&lt;/span&gt;" style="whiteSpace=wrap;html=1;align=center;" parent="1" vertex="1"><mxGeometry x="2220" y="-1180" width="80" height="50" as="geometry"/></mxCell><mxCell id="bekkxn9jI4juC3noe-xg-3" value="审核" style="rhombus;whiteSpace=wrap;html=1;" parent="1" vertex="1"><mxGeometry x="1465" y="-1310" width="80" height="50" as="geometry"/></mxCell><mxCell id="bekkxn9jI4juC3noe-xg-4" value="属于" style="rhombus;whiteSpace=wrap;html=1;" parent="1" vertex="1"><mxGeometry x="2020" y="-1180" width="80" height="50" as="geometry"/></mxCell><mxCell id="bekkxn9jI4juC3noe-xg-5" value="" style="endArrow=none;html=1;rounded=0;exitX=1;exitY=0.5;exitDx=0;exitDy=0;entryX=0.5;entryY=0;entryDx=0;entryDy=0;" parent="1" source="bekkxn9jI4juC3noe-xg-24" target="bekkxn9jI4juC3noe-xg-3" edge="1"><mxGeometry width="50" height="50" relative="1" as="geometry"><mxPoint x="1480" y="-1155" as="sourcePoint"/><mxPoint x="1655" y="-1229" as="targetPoint"/></mxGeometry></mxCell><mxCell id="bekkxn9jI4juC3noe-xg-6" value="1" style="edgeLabel;html=1;align=center;verticalAlign=middle;resizable=0;points=[];fontStyle=1;fontSize=14;" parent="bekkxn9jI4juC3noe-xg-5" vertex="1" connectable="0"><mxGeometry x="-0.3683" y="1" relative="1" as="geometry"><mxPoint x="5" y="26" as="offset"/></mxGeometry></mxCell><mxCell id="bekkxn9jI4juC3noe-xg-7" value="N" style="endArrow=none;html=1;rounded=0;exitX=0.5;exitY=1;exitDx=0;exitDy=0;entryX=0;entryY=0.5;entryDx=0;entryDy=0;fontStyle=1;fontSize=14;" parent="1" source="bekkxn9jI4juC3noe-xg-3" target="bekkxn9jI4juC3noe-xg-33" edge="1"><mxGeometry width="50" height="50" relative="1" as="geometry"><mxPoint x="1660" y="-1180" as="sourcePoint"/><mxPoint x="1720" y="-1155" as="targetPoint"/><Array as="points"/></mxGeometry></mxCell><mxCell id="bekkxn9jI4juC3noe-xg-8" value="N" style="endArrow=none;html=1;rounded=0;exitX=1;exitY=0.5;exitDx=0;exitDy=0;entryX=0;entryY=0.5;entryDx=0;entryDy=0;fontStyle=1;fontSize=14;" parent="1" source="bekkxn9jI4juC3noe-xg-4" target="bekkxn9jI4juC3noe-xg-2" edge="1"><mxGeometry width="50" height="50" relative="1" as="geometry"><mxPoint x="1950" y="-1230" as="sourcePoint"/><mxPoint x="2030" y="-1230" as="targetPoint"/><Array as="points"/></mxGeometry></mxCell><mxCell id="bekkxn9jI4juC3noe-xg-9" value="M" style="endArrow=none;html=1;rounded=0;exitX=1;exitY=0.5;exitDx=0;exitDy=0;entryX=0;entryY=0.5;entryDx=0;entryDy=0;fontStyle=1;fontSize=14;" parent="1" source="bekkxn9jI4juC3noe-xg-33" target="bekkxn9jI4juC3noe-xg-4" edge="1"><mxGeometry x="-0.0382" y="-1" width="50" height="50" relative="1" as="geometry"><mxPoint x="1800" y="-1155" as="sourcePoint"/><mxPoint x="2010" y="-1285" as="targetPoint"/><Array as="points"/><mxPoint as="offset"/></mxGeometry></mxCell><mxCell id="bekkxn9jI4juC3noe-xg-10" value="属于" style="rhombus;whiteSpace=wrap;html=1;" parent="1" vertex="1"><mxGeometry x="1530" y="-1180" width="80" height="50" as="geometry"/></mxCell><mxCell id="bekkxn9jI4juC3noe-xg-11" value="1" style="endArrow=none;html=1;rounded=0;entryX=0;entryY=0.5;entryDx=0;entryDy=0;fontStyle=1;fontSize=14;exitX=1;exitY=0.5;exitDx=0;exitDy=0;" parent="1" source="bekkxn9jI4juC3noe-xg-115" target="bekkxn9jI4juC3noe-xg-10" edge="1"><mxGeometry width="50" height="50" relative="1" as="geometry"><mxPoint x="1410" y="-1155" as="sourcePoint"/><mxPoint x="1500" y="-1135" as="targetPoint"/><Array as="points"/></mxGeometry></mxCell><mxCell id="bekkxn9jI4juC3noe-xg-12" value="N" style="endArrow=none;html=1;rounded=0;exitX=1;exitY=0.5;exitDx=0;exitDy=0;fontStyle=1;fontSize=14;entryX=0;entryY=0.5;entryDx=0;entryDy=0;" parent="1" source="bekkxn9jI4juC3noe-xg-10" target="bekkxn9jI4juC3noe-xg-33" edge="1"><mxGeometry x="-0.0382" y="-1" width="50" height="50" relative="1" as="geometry"><mxPoint x="1570" y="-1200" as="sourcePoint"/><mxPoint x="1660" y="-1120" as="targetPoint"/><Array as="points"/><mxPoint as="offset"/></mxGeometry></mxCell><mxCell id="bekkxn9jI4juC3noe-xg-13" value="发布" style="rhombus;whiteSpace=wrap;html=1;" parent="1" vertex="1"><mxGeometry x="1560" y="-875" width="80" height="50" as="geometry"/></mxCell><mxCell id="bekkxn9jI4juC3noe-xg-14" value="" style="endArrow=none;html=1;rounded=0;exitX=1;exitY=0.5;exitDx=0;exitDy=0;entryX=0;entryY=0.5;entryDx=0;entryDy=0;" parent="1" source="bekkxn9jI4juC3noe-xg-46" target="bekkxn9jI4juC3noe-xg-13" edge="1"><mxGeometry width="50" height="50" relative="1" as="geometry"><mxPoint x="1480" y="-850" as="sourcePoint"/><mxPoint x="1655" y="-924" as="targetPoint"/></mxGeometry></mxCell><mxCell id="bekkxn9jI4juC3noe-xg-15" value="1" style="edgeLabel;html=1;align=center;verticalAlign=middle;resizable=0;points=[];fontStyle=1;fontSize=14;" parent="bekkxn9jI4juC3noe-xg-14" vertex="1" connectable="0"><mxGeometry x="-0.3683" y="1" relative="1" as="geometry"><mxPoint x="15" y="1" as="offset"/></mxGeometry></mxCell><mxCell id="bekkxn9jI4juC3noe-xg-16" value="N" style="endArrow=none;html=1;rounded=0;exitX=1;exitY=0.5;exitDx=0;exitDy=0;entryX=0;entryY=0.5;entryDx=0;entryDy=0;fontStyle=1;fontSize=14;" parent="1" source="bekkxn9jI4juC3noe-xg-13" target="bekkxn9jI4juC3noe-xg-68" edge="1"><mxGeometry width="50" height="50" relative="1" as="geometry"><mxPoint x="1660" y="-875" as="sourcePoint"/><mxPoint x="1720" y="-850" as="targetPoint"/><Array as="points"><mxPoint x="1680" y="-850"/></Array></mxGeometry></mxCell><mxCell id="bekkxn9jI4juC3noe-xg-17" value="拥有" style="rhombus;whiteSpace=wrap;html=1;" parent="1" vertex="1"><mxGeometry x="1720" y="-1040" width="80" height="50" as="geometry"/></mxCell><mxCell id="bekkxn9jI4juC3noe-xg-18" value="1" style="endArrow=none;html=1;rounded=0;exitX=0.5;exitY=1;exitDx=0;exitDy=0;entryX=0.5;entryY=0;entryDx=0;entryDy=0;fontStyle=1;fontSize=14;" parent="1" source="bekkxn9jI4juC3noe-xg-33" target="bekkxn9jI4juC3noe-xg-17" edge="1"><mxGeometry width="50" height="50" relative="1" as="geometry"><mxPoint x="1760" y="-1130" as="sourcePoint"/><mxPoint x="1845" y="-1079" as="targetPoint"/></mxGeometry></mxCell><mxCell id="bekkxn9jI4juC3noe-xg-19" value="N" style="endArrow=none;html=1;rounded=0;exitX=0.5;exitY=1;exitDx=0;exitDy=0;fontStyle=1;fontSize=14;entryX=0.5;entryY=0;entryDx=0;entryDy=0;" parent="1" source="bekkxn9jI4juC3noe-xg-17" target="bekkxn9jI4juC3noe-xg-68" edge="1"><mxGeometry width="50" height="50" relative="1" as="geometry"><mxPoint x="1850" y="-1030" as="sourcePoint"/><mxPoint x="1760" y="-875" as="targetPoint"/><Array as="points"><mxPoint x="1760" y="-950"/></Array></mxGeometry></mxCell><mxCell id="bekkxn9jI4juC3noe-xg-20" value="发布" style="rhombus;whiteSpace=wrap;html=1;" parent="1" vertex="1"><mxGeometry x="1560" y="-1040" width="80" height="50" as="geometry"/></mxCell><mxCell id="bekkxn9jI4juC3noe-xg-21" value="" style="endArrow=none;html=1;rounded=0;exitX=1;exitY=0;exitDx=0;exitDy=0;entryX=0.5;entryY=1;entryDx=0;entryDy=0;" parent="1" source="bekkxn9jI4juC3noe-xg-46" target="bekkxn9jI4juC3noe-xg-20" edge="1"><mxGeometry width="50" height="50" relative="1" as="geometry"><mxPoint x="1480" y="-875" as="sourcePoint"/><mxPoint x="1590" y="-1089" as="targetPoint"/></mxGeometry></mxCell><mxCell id="bekkxn9jI4juC3noe-xg-22" value="1" style="edgeLabel;html=1;align=center;verticalAlign=middle;resizable=0;points=[];fontStyle=1;fontSize=14;" parent="bekkxn9jI4juC3noe-xg-21" vertex="1" connectable="0"><mxGeometry x="-0.3683" y="1" relative="1" as="geometry"><mxPoint x="37" y="-28" as="offset"/></mxGeometry></mxCell><mxCell id="bekkxn9jI4juC3noe-xg-23" value="N" style="endArrow=none;html=1;rounded=0;exitX=0.5;exitY=0;exitDx=0;exitDy=0;entryX=0;entryY=0.5;entryDx=0;entryDy=0;fontStyle=1;fontSize=14;" parent="1" source="bekkxn9jI4juC3noe-xg-20" target="bekkxn9jI4juC3noe-xg-33" edge="1"><mxGeometry width="50" height="50" relative="1" as="geometry"><mxPoint x="1595" y="-1040" as="sourcePoint"/><mxPoint x="1720" y="-1155" as="targetPoint"/><Array as="points"/></mxGeometry></mxCell><mxCell id="bekkxn9jI4juC3noe-xg-24" value="管理员" style="whiteSpace=wrap;html=1;align=center;" parent="1" vertex="1"><mxGeometry x="1340" y="-1420" width="80" height="50" as="geometry"/></mxCell><mxCell id="bekkxn9jI4juC3noe-xg-25" value="编号" style="ellipse;whiteSpace=wrap;html=1;" parent="1" vertex="1"><mxGeometry x="1260" y="-1510" width="70" height="40" as="geometry"/></mxCell><mxCell id="bekkxn9jI4juC3noe-xg-26" value="" style="endArrow=none;html=1;rounded=0;fontSize=14;entryX=0.5;entryY=1;entryDx=0;entryDy=0;exitX=0;exitY=0.25;exitDx=0;exitDy=0;" parent="1" source="bekkxn9jI4juC3noe-xg-24" target="bekkxn9jI4juC3noe-xg-25" edge="1"><mxGeometry width="50" height="50" relative="1" as="geometry"><mxPoint x="1450" y="-1400" as="sourcePoint"/><mxPoint x="1500" y="-1450" as="targetPoint"/></mxGeometry></mxCell><mxCell id="bekkxn9jI4juC3noe-xg-27" value="账号" style="ellipse;whiteSpace=wrap;html=1;" parent="1" vertex="1"><mxGeometry x="1230" y="-1460" width="70" height="40" as="geometry"/></mxCell><mxCell id="bekkxn9jI4juC3noe-xg-28" value="" style="endArrow=none;html=1;rounded=0;fontSize=14;entryX=1;entryY=1;entryDx=0;entryDy=0;exitX=0;exitY=0.5;exitDx=0;exitDy=0;" parent="1" source="bekkxn9jI4juC3noe-xg-24" target="bekkxn9jI4juC3noe-xg-27" edge="1"><mxGeometry width="50" height="50" relative="1" as="geometry"><mxPoint x="1340" y="-1370" as="sourcePoint"/><mxPoint x="1460" y="-1400" as="targetPoint"/></mxGeometry></mxCell><mxCell id="bekkxn9jI4juC3noe-xg-29" value="姓名" style="ellipse;whiteSpace=wrap;html=1;" parent="1" vertex="1"><mxGeometry x="1230" y="-1335" width="70" height="40" as="geometry"/></mxCell><mxCell id="bekkxn9jI4juC3noe-xg-30" value="" style="endArrow=none;html=1;rounded=0;fontSize=14;entryX=1;entryY=0.5;entryDx=0;entryDy=0;exitX=0;exitY=0.75;exitDx=0;exitDy=0;" parent="1" source="bekkxn9jI4juC3noe-xg-24" target="bekkxn9jI4juC3noe-xg-29" edge="1"><mxGeometry width="50" height="50" relative="1" as="geometry"><mxPoint x="1315" y="-1280" as="sourcePoint"/><mxPoint x="1435" y="-1310" as="targetPoint"/></mxGeometry></mxCell><mxCell id="bekkxn9jI4juC3noe-xg-31" value="密码" style="ellipse;whiteSpace=wrap;html=1;" parent="1" vertex="1"><mxGeometry x="1230" y="-1400" width="70" height="40" as="geometry"/></mxCell><mxCell id="bekkxn9jI4juC3noe-xg-32" value="" style="endArrow=none;html=1;rounded=0;fontSize=14;entryX=1;entryY=0.5;entryDx=0;entryDy=0;" parent="1" target="bekkxn9jI4juC3noe-xg-31" edge="1"><mxGeometry width="50" height="50" relative="1" as="geometry"><mxPoint x="1340" y="-1390" as="sourcePoint"/><mxPoint x="1300" y="-1310" as="targetPoint"/></mxGeometry></mxCell><mxCell id="bekkxn9jI4juC3noe-xg-33" value="帖子" style="whiteSpace=wrap;html=1;align=center;" parent="1" vertex="1"><mxGeometry x="1720" y="-1180" width="80" height="50" as="geometry"/></mxCell><mxCell id="bekkxn9jI4juC3noe-xg-34" value="编号" style="ellipse;whiteSpace=wrap;html=1;" parent="1" vertex="1"><mxGeometry x="1600" y="-1270" width="70" height="40" as="geometry"/></mxCell><mxCell id="bekkxn9jI4juC3noe-xg-35" value="" style="endArrow=none;html=1;rounded=0;fontSize=14;entryX=1;entryY=1;entryDx=0;entryDy=0;exitX=0;exitY=0;exitDx=0;exitDy=0;" parent="1" source="bekkxn9jI4juC3noe-xg-33" target="bekkxn9jI4juC3noe-xg-34" edge="1"><mxGeometry width="50" height="50" relative="1" as="geometry"><mxPoint x="1760" y="-1210" as="sourcePoint"/><mxPoint x="1880" y="-1240" as="targetPoint"/></mxGeometry></mxCell><mxCell id="bekkxn9jI4juC3noe-xg-36" value="标题" style="ellipse;whiteSpace=wrap;html=1;" parent="1" vertex="1"><mxGeometry x="1640" y="-1310" width="70" height="40" as="geometry"/></mxCell><mxCell id="bekkxn9jI4juC3noe-xg-37" value="" style="endArrow=none;html=1;rounded=0;fontSize=14;entryX=0.5;entryY=1;entryDx=0;entryDy=0;exitX=0.25;exitY=0;exitDx=0;exitDy=0;" parent="1" source="bekkxn9jI4juC3noe-xg-33" target="bekkxn9jI4juC3noe-xg-36" edge="1"><mxGeometry width="50" height="50" relative="1" as="geometry"><mxPoint x="1730" y="-1190" as="sourcePoint"/><mxPoint x="1890" y="-1250" as="targetPoint"/></mxGeometry></mxCell><mxCell id="bekkxn9jI4juC3noe-xg-38" value="图片" style="ellipse;whiteSpace=wrap;html=1;" parent="1" vertex="1"><mxGeometry x="1700" y="-1340" width="70" height="40" as="geometry"/></mxCell><mxCell id="bekkxn9jI4juC3noe-xg-39" value="" style="endArrow=none;html=1;rounded=0;fontSize=14;entryX=0.5;entryY=1;entryDx=0;entryDy=0;exitX=0.5;exitY=0;exitDx=0;exitDy=0;" parent="1" source="bekkxn9jI4juC3noe-xg-33" target="bekkxn9jI4juC3noe-xg-38" edge="1"><mxGeometry width="50" height="50" relative="1" as="geometry"><mxPoint x="1830" y="-1240" as="sourcePoint"/><mxPoint x="1950" y="-1270" as="targetPoint"/></mxGeometry></mxCell><mxCell id="bekkxn9jI4juC3noe-xg-40" value="发布时间" style="ellipse;whiteSpace=wrap;html=1;" parent="1" vertex="1"><mxGeometry x="1855" y="-1330" width="70" height="40" as="geometry"/></mxCell><mxCell id="bekkxn9jI4juC3noe-xg-41" value="" style="endArrow=none;html=1;rounded=0;fontSize=14;entryX=0.5;entryY=1;entryDx=0;entryDy=0;exitX=0.75;exitY=0;exitDx=0;exitDy=0;" parent="1" source="bekkxn9jI4juC3noe-xg-33" target="bekkxn9jI4juC3noe-xg-40" edge="1"><mxGeometry width="50" height="50" relative="1" as="geometry"><mxPoint x="1900" y="-1220" as="sourcePoint"/><mxPoint x="2020" y="-1250" as="targetPoint"/></mxGeometry></mxCell><mxCell id="bekkxn9jI4juC3noe-xg-42" value="内容" style="ellipse;whiteSpace=wrap;html=1;" parent="1" vertex="1"><mxGeometry x="1775" y="-1340" width="70" height="40" as="geometry"/></mxCell><mxCell id="bekkxn9jI4juC3noe-xg-43" value="" style="endArrow=none;html=1;rounded=0;fontSize=14;entryX=0.5;entryY=1;entryDx=0;entryDy=0;" parent="1" target="bekkxn9jI4juC3noe-xg-42" edge="1"><mxGeometry width="50" height="50" relative="1" as="geometry"><mxPoint x="1760" y="-1180" as="sourcePoint"/><mxPoint x="2120" y="-1240" as="targetPoint"/></mxGeometry></mxCell><mxCell id="bekkxn9jI4juC3noe-xg-44" value="阅读量" style="ellipse;whiteSpace=wrap;html=1;" parent="1" vertex="1"><mxGeometry x="1915" y="-1280" width="70" height="40" as="geometry"/></mxCell><mxCell id="bekkxn9jI4juC3noe-xg-45" value="" style="endArrow=none;html=1;rounded=0;fontSize=14;entryX=0;entryY=0.5;entryDx=0;entryDy=0;exitX=1;exitY=0;exitDx=0;exitDy=0;" parent="1" source="bekkxn9jI4juC3noe-xg-33" target="bekkxn9jI4juC3noe-xg-44" edge="1"><mxGeometry width="50" height="50" relative="1" as="geometry"><mxPoint x="1820" y="-1190" as="sourcePoint"/><mxPoint x="2190" y="-1170" as="targetPoint"/></mxGeometry></mxCell><mxCell id="bekkxn9jI4juC3noe-xg-46" value="用户" style="whiteSpace=wrap;html=1;align=center;" parent="1" vertex="1"><mxGeometry x="1400" y="-875" width="80" height="50" as="geometry"/></mxCell><mxCell id="bekkxn9jI4juC3noe-xg-47" value="1" style="edgeLabel;html=1;align=center;verticalAlign=middle;resizable=0;points=[];fontStyle=1;fontSize=14;" parent="1" vertex="1" connectable="0"><mxGeometry x="1520" y="-850" as="geometry"/></mxCell><mxCell id="bekkxn9jI4juC3noe-xg-48" value="编号" style="ellipse;whiteSpace=wrap;html=1;" parent="1" vertex="1"><mxGeometry x="1330" y="-990" width="70" height="40" as="geometry"/></mxCell><mxCell id="bekkxn9jI4juC3noe-xg-49" value="" style="endArrow=none;html=1;rounded=0;fontSize=14;entryX=1;entryY=1;entryDx=0;entryDy=0;exitX=0.5;exitY=0;exitDx=0;exitDy=0;" parent="1" source="bekkxn9jI4juC3noe-xg-46" target="bekkxn9jI4juC3noe-xg-48" edge="1"><mxGeometry width="50" height="50" relative="1" as="geometry"><mxPoint x="1390" y="-910" as="sourcePoint"/><mxPoint x="1500" y="-960" as="targetPoint"/></mxGeometry></mxCell><mxCell id="bekkxn9jI4juC3noe-xg-50" value="账号" style="ellipse;whiteSpace=wrap;html=1;" parent="1" vertex="1"><mxGeometry x="1290" y="-950" width="70" height="40" as="geometry"/></mxCell><mxCell id="bekkxn9jI4juC3noe-xg-51" value="" style="endArrow=none;html=1;rounded=0;fontSize=14;entryX=1;entryY=1;entryDx=0;entryDy=0;exitX=0.25;exitY=0;exitDx=0;exitDy=0;" parent="1" source="bekkxn9jI4juC3noe-xg-46" target="bekkxn9jI4juC3noe-xg-50" edge="1"><mxGeometry width="50" height="50" relative="1" as="geometry"><mxPoint x="1360" y="-840" as="sourcePoint"/><mxPoint x="1470" y="-890" as="targetPoint"/></mxGeometry></mxCell><mxCell id="bekkxn9jI4juC3noe-xg-52" value="昵称" style="ellipse;whiteSpace=wrap;html=1;" parent="1" vertex="1"><mxGeometry x="1260" y="-865" width="70" height="40" as="geometry"/></mxCell><mxCell id="bekkxn9jI4juC3noe-xg-53" value="" style="endArrow=none;html=1;rounded=0;fontSize=14;entryX=1;entryY=0.5;entryDx=0;entryDy=0;exitX=0;exitY=0.5;exitDx=0;exitDy=0;" parent="1" source="bekkxn9jI4juC3noe-xg-46" target="bekkxn9jI4juC3noe-xg-52" edge="1"><mxGeometry width="50" height="50" relative="1" as="geometry"><mxPoint x="1370" y="-770" as="sourcePoint"/><mxPoint x="1480" y="-820" as="targetPoint"/></mxGeometry></mxCell><mxCell id="bekkxn9jI4juC3noe-xg-54" value="密码" style="ellipse;whiteSpace=wrap;html=1;" parent="1" vertex="1"><mxGeometry x="1260" y="-910" width="70" height="40" as="geometry"/></mxCell><mxCell id="bekkxn9jI4juC3noe-xg-55" value="" style="endArrow=none;html=1;rounded=0;fontSize=14;entryX=0.973;entryY=0.351;entryDx=0;entryDy=0;exitX=0;exitY=0.25;exitDx=0;exitDy=0;entryPerimeter=0;" parent="1" source="bekkxn9jI4juC3noe-xg-46" target="bekkxn9jI4juC3noe-xg-54" edge="1"><mxGeometry width="50" height="50" relative="1" as="geometry"><mxPoint x="1375" y="-740" as="sourcePoint"/><mxPoint x="1485" y="-790" as="targetPoint"/></mxGeometry></mxCell><mxCell id="bekkxn9jI4juC3noe-xg-56" value="头像" style="ellipse;whiteSpace=wrap;html=1;" parent="1" vertex="1"><mxGeometry x="1270" y="-820" width="70" height="40" as="geometry"/></mxCell><mxCell id="bekkxn9jI4juC3noe-xg-57" value="" style="endArrow=none;html=1;rounded=0;fontSize=14;entryX=1;entryY=0.5;entryDx=0;entryDy=0;exitX=0;exitY=0.5;exitDx=0;exitDy=0;" parent="1" source="bekkxn9jI4juC3noe-xg-46" target="bekkxn9jI4juC3noe-xg-56" edge="1"><mxGeometry width="50" height="50" relative="1" as="geometry"><mxPoint x="1370" y="-750" as="sourcePoint"/><mxPoint x="1480" y="-800" as="targetPoint"/></mxGeometry></mxCell><mxCell id="bekkxn9jI4juC3noe-xg-58" value="生日" style="ellipse;whiteSpace=wrap;html=1;" parent="1" vertex="1"><mxGeometry x="1290" y="-770" width="70" height="40" as="geometry"/></mxCell><mxCell id="bekkxn9jI4juC3noe-xg-59" value="" style="endArrow=none;html=1;rounded=0;fontSize=14;entryX=0.5;entryY=0;entryDx=0;entryDy=0;exitX=0;exitY=1;exitDx=0;exitDy=0;" parent="1" source="bekkxn9jI4juC3noe-xg-46" target="bekkxn9jI4juC3noe-xg-58" edge="1"><mxGeometry width="50" height="50" relative="1" as="geometry"><mxPoint x="1420" y="-710" as="sourcePoint"/><mxPoint x="1530" y="-760" as="targetPoint"/></mxGeometry></mxCell><mxCell id="bekkxn9jI4juC3noe-xg-60" value="电子邮箱" style="ellipse;whiteSpace=wrap;html=1;" parent="1" vertex="1"><mxGeometry x="1330" y="-720" width="70" height="40" as="geometry"/></mxCell><mxCell id="bekkxn9jI4juC3noe-xg-61" value="" style="endArrow=none;html=1;rounded=0;fontSize=14;entryX=0.5;entryY=0;entryDx=0;entryDy=0;exitX=0.25;exitY=1;exitDx=0;exitDy=0;" parent="1" source="bekkxn9jI4juC3noe-xg-46" target="bekkxn9jI4juC3noe-xg-60" edge="1"><mxGeometry width="50" height="50" relative="1" as="geometry"><mxPoint x="1400" y="-820" as="sourcePoint"/><mxPoint x="1610" y="-745" as="targetPoint"/></mxGeometry></mxCell><mxCell id="bekkxn9jI4juC3noe-xg-62" value="手机号码" style="ellipse;whiteSpace=wrap;html=1;" parent="1" vertex="1"><mxGeometry x="1405" y="-730" width="70" height="40" as="geometry"/></mxCell><mxCell id="bekkxn9jI4juC3noe-xg-63" value="" style="endArrow=none;html=1;rounded=0;fontSize=14;entryX=0.5;entryY=0;entryDx=0;entryDy=0;exitX=0.5;exitY=1;exitDx=0;exitDy=0;" parent="1" source="bekkxn9jI4juC3noe-xg-46" target="bekkxn9jI4juC3noe-xg-62" edge="1"><mxGeometry width="50" height="50" relative="1" as="geometry"><mxPoint x="1500" y="-825" as="sourcePoint"/><mxPoint x="1690" y="-745" as="targetPoint"/></mxGeometry></mxCell><mxCell id="bekkxn9jI4juC3noe-xg-64" value="注册时间" style="ellipse;whiteSpace=wrap;html=1;" parent="1" vertex="1"><mxGeometry x="1475" y="-740" width="70" height="40" as="geometry"/></mxCell><mxCell id="bekkxn9jI4juC3noe-xg-65" value="" style="endArrow=none;html=1;rounded=0;fontSize=14;entryX=0.5;entryY=0;entryDx=0;entryDy=0;exitX=0.5;exitY=1;exitDx=0;exitDy=0;" parent="1" source="bekkxn9jI4juC3noe-xg-46" target="bekkxn9jI4juC3noe-xg-64" edge="1"><mxGeometry width="50" height="50" relative="1" as="geometry"><mxPoint x="1520" y="-830" as="sourcePoint"/><mxPoint x="1710" y="-750" as="targetPoint"/></mxGeometry></mxCell><mxCell id="bekkxn9jI4juC3noe-xg-66" value="是否禁用" style="ellipse;whiteSpace=wrap;html=1;" parent="1" vertex="1"><mxGeometry x="1530" y="-780" width="70" height="40" as="geometry"/></mxCell><mxCell id="bekkxn9jI4juC3noe-xg-67" value="" style="endArrow=none;html=1;rounded=0;fontSize=14;entryX=0.5;entryY=0;entryDx=0;entryDy=0;exitX=0.75;exitY=1;exitDx=0;exitDy=0;" parent="1" source="bekkxn9jI4juC3noe-xg-46" target="bekkxn9jI4juC3noe-xg-66" edge="1"><mxGeometry width="50" height="50" relative="1" as="geometry"><mxPoint x="1580" y="-870" as="sourcePoint"/><mxPoint x="1770" y="-790" as="targetPoint"/></mxGeometry></mxCell><mxCell id="bekkxn9jI4juC3noe-xg-68" value="评论" style="whiteSpace=wrap;html=1;align=center;" parent="1" vertex="1"><mxGeometry x="1720" y="-875" width="80" height="50" as="geometry"/></mxCell><mxCell id="bekkxn9jI4juC3noe-xg-69" value="编号" style="ellipse;whiteSpace=wrap;html=1;" parent="1" vertex="1"><mxGeometry x="1605" y="-800" width="70" height="40" as="geometry"/></mxCell><mxCell id="bekkxn9jI4juC3noe-xg-70" value="" style="endArrow=none;html=1;rounded=0;fontSize=14;entryX=0.5;entryY=0;entryDx=0;entryDy=0;exitX=0;exitY=1;exitDx=0;exitDy=0;" parent="1" source="bekkxn9jI4juC3noe-xg-68" target="bekkxn9jI4juC3noe-xg-69" edge="1"><mxGeometry width="50" height="50" relative="1" as="geometry"><mxPoint x="1650" y="-865" as="sourcePoint"/><mxPoint x="1840" y="-785" as="targetPoint"/></mxGeometry></mxCell><mxCell id="bekkxn9jI4juC3noe-xg-71" value="发布时间" style="ellipse;whiteSpace=wrap;html=1;" parent="1" vertex="1"><mxGeometry x="1700" y="-760" width="70" height="40" as="geometry"/></mxCell><mxCell id="bekkxn9jI4juC3noe-xg-72" value="" style="endArrow=none;html=1;rounded=0;fontSize=14;entryX=0.5;entryY=0;entryDx=0;entryDy=0;exitX=0.5;exitY=1;exitDx=0;exitDy=0;" parent="1" source="bekkxn9jI4juC3noe-xg-68" target="bekkxn9jI4juC3noe-xg-71" edge="1"><mxGeometry width="50" height="50" relative="1" as="geometry"><mxPoint x="1760" y="-820" as="sourcePoint"/><mxPoint x="1910" y="-765" as="targetPoint"/></mxGeometry></mxCell><mxCell id="bekkxn9jI4juC3noe-xg-73" value="IP地址" style="ellipse;whiteSpace=wrap;html=1;" parent="1" vertex="1"><mxGeometry x="1750" y="-720" width="70" height="40" as="geometry"/></mxCell><mxCell id="bekkxn9jI4juC3noe-xg-74" value="" style="endArrow=none;html=1;rounded=0;fontSize=14;entryX=0.5;entryY=0;entryDx=0;entryDy=0;exitX=0.5;exitY=1;exitDx=0;exitDy=0;" parent="1" source="bekkxn9jI4juC3noe-xg-68" target="bekkxn9jI4juC3noe-xg-73" edge="1"><mxGeometry width="50" height="50" relative="1" as="geometry"><mxPoint x="1750" y="-815" as="sourcePoint"/><mxPoint x="1970" y="-725" as="targetPoint"/></mxGeometry></mxCell><mxCell id="bekkxn9jI4juC3noe-xg-75" value="是否隐藏" style="ellipse;whiteSpace=wrap;html=1;" parent="1" vertex="1"><mxGeometry x="1790" y="-770" width="70" height="40" as="geometry"/></mxCell><mxCell id="bekkxn9jI4juC3noe-xg-76" value="" style="endArrow=none;html=1;rounded=0;fontSize=14;entryX=0.5;entryY=0;entryDx=0;entryDy=0;exitX=0.5;exitY=1;exitDx=0;exitDy=0;" parent="1" source="bekkxn9jI4juC3noe-xg-68" target="bekkxn9jI4juC3noe-xg-75" edge="1"><mxGeometry width="50" height="50" relative="1" as="geometry"><mxPoint x="1760" y="-800" as="sourcePoint"/><mxPoint x="2030" y="-740" as="targetPoint"/></mxGeometry></mxCell><mxCell id="bekkxn9jI4juC3noe-xg-77" value="点赞数" style="ellipse;whiteSpace=wrap;html=1;" parent="1" vertex="1"><mxGeometry x="1865" y="-750" width="70" height="40" as="geometry"/></mxCell><mxCell id="bekkxn9jI4juC3noe-xg-78" value="" style="endArrow=none;html=1;rounded=0;fontSize=14;entryX=0.5;entryY=0;entryDx=0;entryDy=0;exitX=0.75;exitY=1;exitDx=0;exitDy=0;" parent="1" source="bekkxn9jI4juC3noe-xg-68" target="bekkxn9jI4juC3noe-xg-77" edge="1"><mxGeometry width="50" height="50" relative="1" as="geometry"><mxPoint x="1790" y="-805" as="sourcePoint"/><mxPoint x="2120" y="-795" as="targetPoint"/></mxGeometry></mxCell><mxCell id="bekkxn9jI4juC3noe-xg-79" value="点踩数" style="ellipse;whiteSpace=wrap;html=1;" parent="1" vertex="1"><mxGeometry x="1905" y="-790" width="70" height="40" as="geometry"/></mxCell><mxCell id="bekkxn9jI4juC3noe-xg-80" value="" style="endArrow=none;html=1;rounded=0;fontSize=14;entryX=0.5;entryY=0;entryDx=0;entryDy=0;exitX=1;exitY=1;exitDx=0;exitDy=0;" parent="1" source="bekkxn9jI4juC3noe-xg-68" target="bekkxn9jI4juC3noe-xg-79" edge="1"><mxGeometry width="50" height="50" relative="1" as="geometry"><mxPoint x="1820" y="-865" as="sourcePoint"/><mxPoint x="2160" y="-835" as="targetPoint"/></mxGeometry></mxCell><mxCell id="bekkxn9jI4juC3noe-xg-81" value="回复" style="rhombus;whiteSpace=wrap;html=1;" parent="1" vertex="1"><mxGeometry x="1855" y="-875" width="80" height="50" as="geometry"/></mxCell><mxCell id="bekkxn9jI4juC3noe-xg-82" value="" style="endArrow=none;html=1;rounded=0;exitX=1;exitY=0;exitDx=0;exitDy=0;entryX=0.5;entryY=0;entryDx=0;entryDy=0;" parent="1" source="bekkxn9jI4juC3noe-xg-68" target="bekkxn9jI4juC3noe-xg-81" edge="1"><mxGeometry width="50" height="50" relative="1" as="geometry"><mxPoint x="1820" y="-890" as="sourcePoint"/><mxPoint x="1900" y="-890" as="targetPoint"/></mxGeometry></mxCell><mxCell id="bekkxn9jI4juC3noe-xg-83" value="1" style="edgeLabel;html=1;align=center;verticalAlign=middle;resizable=0;points=[];fontStyle=1;fontSize=14;" parent="bekkxn9jI4juC3noe-xg-82" vertex="1" connectable="0"><mxGeometry x="-0.3683" y="1" relative="1" as="geometry"><mxPoint x="15" y="1" as="offset"/></mxGeometry></mxCell><mxCell id="bekkxn9jI4juC3noe-xg-84" value="N" style="endArrow=none;html=1;rounded=0;exitX=1;exitY=1;exitDx=0;exitDy=0;entryX=0.5;entryY=1;entryDx=0;entryDy=0;fontStyle=1;fontSize=14;" parent="1" source="bekkxn9jI4juC3noe-xg-68" target="bekkxn9jI4juC3noe-xg-81" edge="1"><mxGeometry width="50" height="50" relative="1" as="geometry"><mxPoint x="1830" y="-830" as="sourcePoint"/><mxPoint x="1910" y="-830" as="targetPoint"/><Array as="points"/></mxGeometry></mxCell><mxCell id="bekkxn9jI4juC3noe-xg-85" value="内容" style="ellipse;whiteSpace=wrap;html=1;" parent="1" vertex="1"><mxGeometry x="1625" y="-750" width="70" height="40" as="geometry"/></mxCell><mxCell id="bekkxn9jI4juC3noe-xg-86" value="" style="endArrow=none;html=1;rounded=0;fontSize=14;entryX=0.5;entryY=0;entryDx=0;entryDy=0;exitX=0.25;exitY=1;exitDx=0;exitDy=0;" parent="1" source="bekkxn9jI4juC3noe-xg-68" target="bekkxn9jI4juC3noe-xg-85" edge="1"><mxGeometry width="50" height="50" relative="1" as="geometry"><mxPoint x="1720" y="-780" as="sourcePoint"/><mxPoint x="1840" y="-740" as="targetPoint"/></mxGeometry></mxCell><mxCell id="bekkxn9jI4juC3noe-xg-87" value="编号" style="ellipse;whiteSpace=wrap;html=1;" parent="1" vertex="1"><mxGeometry x="2340" y="-1220" width="70" height="40" as="geometry"/></mxCell><mxCell id="bekkxn9jI4juC3noe-xg-88" value="" style="endArrow=none;html=1;rounded=0;fontSize=14;entryX=0;entryY=0.5;entryDx=0;entryDy=0;exitX=1;exitY=0.5;exitDx=0;exitDy=0;" parent="1" source="bekkxn9jI4juC3noe-xg-2" target="bekkxn9jI4juC3noe-xg-87" edge="1"><mxGeometry width="50" height="50" relative="1" as="geometry"><mxPoint x="2300" y="-1155" as="sourcePoint"/><mxPoint x="2550" y="-1200" as="targetPoint"/></mxGeometry></mxCell><mxCell id="bekkxn9jI4juC3noe-xg-89" value="名称" style="ellipse;whiteSpace=wrap;html=1;" parent="1" vertex="1"><mxGeometry x="2340" y="-1130" width="70" height="40" as="geometry"/></mxCell><mxCell id="bekkxn9jI4juC3noe-xg-90" value="" style="endArrow=none;html=1;rounded=0;fontSize=14;entryX=0;entryY=0.5;entryDx=0;entryDy=0;exitX=1;exitY=0.5;exitDx=0;exitDy=0;" parent="1" source="bekkxn9jI4juC3noe-xg-2" target="bekkxn9jI4juC3noe-xg-89" edge="1"><mxGeometry width="50" height="50" relative="1" as="geometry"><mxPoint x="2300" y="-1155" as="sourcePoint"/><mxPoint x="2630" y="-1087.5" as="targetPoint"/></mxGeometry></mxCell><mxCell id="bekkxn9jI4juC3noe-xg-97" value="&lt;p style=&quot;line-height: 1.3; font-size: 16px;&quot;&gt;&lt;b&gt;用户&lt;/b&gt;(&lt;font style=&quot;font-size: 16px;&quot;&gt;&lt;u style=&quot;font-size: 16px;&quot;&gt;&lt;span style=&quot;font-size: 16px;&quot;&gt;编号&lt;/span&gt;&lt;/u&gt;&lt;/font&gt;&lt;font style=&quot;font-size: 16px;&quot;&gt;，账号，密码，昵称，头像，生日，电子邮件，手机号码，注册时间，是否禁用&lt;/font&gt;)&lt;/p&gt;&lt;p style=&quot;line-height: 1.3; font-size: 16px;&quot;&gt;&lt;b&gt;管理员&lt;/b&gt;(&lt;u style=&quot;font-size: 16px;&quot;&gt;编号&lt;/u&gt;，账号，密码，姓名)&lt;/p&gt;&lt;p style=&quot;line-height: 1.3; font-size: 16px;&quot;&gt;&lt;b&gt;帖子&lt;/b&gt;(&lt;u&gt;编号&lt;/u&gt;，标题，图片，内容，发布时间，阅读量，&lt;font color=&quot;#ff3333&quot;&gt;作者编号&lt;/font&gt;，&lt;font color=&quot;#ff3333&quot;&gt;审核员编号&lt;/font&gt;，&lt;font color=&quot;#ff3333&quot;&gt;社区编号&lt;/font&gt;)&lt;br&gt;&lt;/p&gt;&lt;p style=&quot;line-height: 1.3; font-size: 16px;&quot;&gt;&lt;b style=&quot;background-color: initial;&quot;&gt;评论&lt;/b&gt;&lt;span style=&quot;background-color: initial;&quot;&gt;(&lt;/span&gt;&lt;u style=&quot;background-color: initial;&quot;&gt;编号&lt;/u&gt;&lt;span style=&quot;background-color: initial;&quot;&gt;，内容，发布时间，IP地址，是否隐藏，点赞数，点踩数，&lt;/span&gt;&lt;font style=&quot;background-color: initial;&quot; color=&quot;#ff3333&quot;&gt;回复的评论编号&lt;/font&gt;&lt;span style=&quot;background-color: initial;&quot;&gt;，&lt;/span&gt;&lt;font style=&quot;background-color: initial;&quot; color=&quot;#ff3333&quot;&gt;作者编号&lt;/font&gt;&lt;span style=&quot;background-color: initial;&quot;&gt;，&lt;/span&gt;&lt;font style=&quot;background-color: initial;&quot; color=&quot;#ff3333&quot;&gt;帖子编号&lt;/font&gt;&lt;span style=&quot;background-color: initial;&quot;&gt;)&lt;/span&gt;&lt;br&gt;&lt;/p&gt;&lt;p style=&quot;line-height: 1.3; font-size: 16px;&quot;&gt;&lt;b&gt;游戏类型分类&lt;/b&gt;(&lt;u&gt;编号&lt;/u&gt;，分类名称)&lt;br&gt;&lt;/p&gt;&lt;p style=&quot;line-height: 1.3; font-size: 16px;&quot;&gt;&lt;b&gt;游戏本体社区&lt;/b&gt;(&lt;u&gt;编号&lt;/u&gt;，游戏名称，商店链接)&lt;br&gt;&lt;/p&gt;&lt;p style=&quot;line-height: 1.3; font-size: 16px;&quot;&gt;&lt;b&gt;帖子_游戏类型分类&lt;/b&gt;(&lt;font color=&quot;#ff3333&quot;&gt;帖子编号&lt;/font&gt;，&lt;font color=&quot;#ff3333&quot;&gt;分类编号&lt;/font&gt;)&lt;/p&gt;&lt;p style=&quot;line-height: 1.3; font-size: 16px;&quot;&gt;&lt;b&gt;用户_游戏本体社区&lt;/b&gt;(&lt;font color=&quot;#ff3333&quot;&gt;用户编号&lt;/font&gt;，&lt;font color=&quot;#ff3333&quot;&gt;社区编号&lt;/font&gt;)&lt;br&gt;&lt;/p&gt;" style="text;html=1;strokeColor=none;fillColor=none;align=left;verticalAlign=top;whiteSpace=wrap;rounded=0;fontSize=16;horizontal=1;" parent="1" vertex="1"><mxGeometry x="2045" y="-870" width="770" height="330" as="geometry"/></mxCell><mxCell id="bekkxn9jI4juC3noe-xg-115" value="游戏本体社区" style="whiteSpace=wrap;html=1;align=center;" parent="1" vertex="1"><mxGeometry x="1345" y="-1180" width="80" height="50" as="geometry"/></mxCell><mxCell id="bekkxn9jI4juC3noe-xg-116" value="编号" style="ellipse;whiteSpace=wrap;html=1;" parent="1" vertex="1"><mxGeometry x="1230" y="-1240" width="70" height="40" as="geometry"/></mxCell><mxCell id="bekkxn9jI4juC3noe-xg-117" value="" style="endArrow=none;html=1;rounded=0;fontSize=14;entryX=1;entryY=0.5;entryDx=0;entryDy=0;exitX=0;exitY=0.5;exitDx=0;exitDy=0;" parent="1" source="bekkxn9jI4juC3noe-xg-115" target="bekkxn9jI4juC3noe-xg-116" edge="1"><mxGeometry width="50" height="50" relative="1" as="geometry"><mxPoint x="1425" y="-1155" as="sourcePoint"/><mxPoint x="1675" y="-1200" as="targetPoint"/></mxGeometry></mxCell><mxCell id="bekkxn9jI4juC3noe-xg-118" value="名称" style="ellipse;whiteSpace=wrap;html=1;" parent="1" vertex="1"><mxGeometry x="1230" y="-1175" width="70" height="40" as="geometry"/></mxCell><mxCell id="bekkxn9jI4juC3noe-xg-119" value="" style="endArrow=none;html=1;rounded=0;fontSize=14;entryX=1;entryY=0.5;entryDx=0;entryDy=0;exitX=0;exitY=0.5;exitDx=0;exitDy=0;" parent="1" source="bekkxn9jI4juC3noe-xg-115" target="bekkxn9jI4juC3noe-xg-118" edge="1"><mxGeometry width="50" height="50" relative="1" as="geometry"><mxPoint x="1425" y="-1155" as="sourcePoint"/><mxPoint x="1755" y="-1087.5" as="targetPoint"/></mxGeometry></mxCell><mxCell id="bekkxn9jI4juC3noe-xg-120" style="rounded=0;orthogonalLoop=1;jettySize=auto;html=1;endArrow=none;endFill=0;horizontal=0;entryX=1;entryY=0.5;entryDx=0;entryDy=0;exitX=0;exitY=0.5;exitDx=0;exitDy=0;" parent="1" source="bekkxn9jI4juC3noe-xg-115" target="bekkxn9jI4juC3noe-xg-121" edge="1"><mxGeometry relative="1" as="geometry"><mxPoint x="1370" y="-1160" as="sourcePoint"/></mxGeometry></mxCell><mxCell id="bekkxn9jI4juC3noe-xg-121" value="商店链接" style="ellipse;whiteSpace=wrap;html=1;" parent="1" vertex="1"><mxGeometry x="1230" y="-1110" width="70" height="40" as="geometry"/></mxCell><mxCell id="bekkxn9jI4juC3noe-xg-123" value="关注" style="rhombus;whiteSpace=wrap;html=1;" parent="1" vertex="1"><mxGeometry x="1405" y="-1040" width="80" height="50" as="geometry"/></mxCell><mxCell id="bekkxn9jI4juC3noe-xg-124" value="N" style="endArrow=none;html=1;rounded=0;exitX=0.5;exitY=1;exitDx=0;exitDy=0;entryX=0.5;entryY=0;entryDx=0;entryDy=0;fontStyle=1;fontSize=14;" parent="1" source="bekkxn9jI4juC3noe-xg-115" target="bekkxn9jI4juC3noe-xg-123" edge="1"><mxGeometry width="50" height="50" relative="1" as="geometry"><mxPoint x="1390" y="-1090" as="sourcePoint"/><mxPoint x="1470" y="-1090" as="targetPoint"/><Array as="points"/></mxGeometry></mxCell><mxCell id="bekkxn9jI4juC3noe-xg-125" value="M" style="endArrow=none;html=1;rounded=0;exitX=0.5;exitY=1;exitDx=0;exitDy=0;entryX=0.5;entryY=0;entryDx=0;entryDy=0;fontStyle=1;fontSize=14;" parent="1" source="bekkxn9jI4juC3noe-xg-123" target="bekkxn9jI4juC3noe-xg-46" edge="1"><mxGeometry width="50" height="50" relative="1" as="geometry"><mxPoint x="1430" y="-940" as="sourcePoint"/><mxPoint x="1510" y="-940" as="targetPoint"/><Array as="points"/></mxGeometry></mxCell></root></mxGraphModel></diagram></mxfile>